<?xml version="1.0" standalone="no"?>
<!DOCTYPE svg PUBLIC "-//W3C//DTD SVG 20010904//EN"
 "http://www.w3.org/TR/2001/REC-SVG-20010904/DTD/svg10.dtd">
<svg version="1.0" xmlns="http://www.w3.org/2000/svg"
 width="720.000000pt" height="960.000000pt" viewBox="0 0 720.000000 960.000000"
 preserveAspectRatio="xMidYMid meet">
<metadata>
Created by potrace 1.16, written by Peter Selinger 2001-2019
</metadata>
<g transform="translate(0.000000,960.000000) scale(0.100000,-0.100000)"
fill="#000000" stroke="none">
<path d="M279 9568 c4 -19 13 -33 21 -33 20 0 31 -16 24 -37 -6 -21 16 -58 35
-58 12 0 12 -3 -1 -17 -11 -14 -15 -50 -17 -150 -2 -124 -1 -133 19 -143 11
-6 20 -20 20 -30 0 -11 5 -20 11 -20 8 0 10 -18 6 -60 -4 -33 -3 -60 2 -60 15
0 21 -117 9 -175 -8 -42 -8 -59 1 -68 6 -6 11 -30 11 -53 0 -23 6 -79 14 -125
21 -128 35 -541 25 -756 -3 -57 -2 -104 3 -105 11 -4 -3 -78 -15 -78 -6 0 -7
16 -4 40 6 46 -10 53 -43 20 -25 -25 -23 -65 4 -104 14 -21 16 -31 8 -34 -7
-2 -12 -10 -12 -19 0 -8 -17 3 -40 28 -22 24 -40 49 -40 56 0 28 -20 11 -31
-27 -7 -22 -20 -47 -31 -56 -13 -12 -18 -32 -19 -68 -1 -46 -2 -48 -11 -23 -5
15 -13 27 -18 27 -10 0 -23 -67 -15 -80 9 -15 -17 -80 -32 -80 -19 0 -16 -24
7 -53 24 -30 25 -48 4 -107 -25 -72 -21 -110 15 -140 l30 -26 -19 -32 c-16
-26 -20 -51 -20 -121 0 -80 -2 -89 -17 -86 -10 2 -21 4 -25 4 -5 1 -8 37 -8
81 0 72 -2 80 -19 80 -11 0 -22 -8 -24 -17 -4 -14 -5 -13 -6 4 0 12 -6 34 -11
49 l-11 28 -21 -21 c-19 -19 -20 -26 -9 -67 16 -65 14 -87 -9 -93 -19 -5 -20
-14 -20 -234 l0 -228 43 -4 42 -4 -42 -1 -43 -2 0 -861 0 -861 27 5 c16 3 46
12 68 20 48 18 55 11 55 -51 l0 -42 -57 4 c-32 3 -66 8 -75 11 -17 7 -18 -39
-18 -879 l0 -887 28 -24 c34 -31 52 -31 53 -2 0 12 3 16 6 10 7 -18 48 -16 63
2 16 19 30 19 30 0 0 -8 -9 -15 -20 -15 -16 0 -20 -7 -20 -34 0 -19 -2 -40 -5
-48 -3 -7 0 -22 8 -32 12 -16 14 -16 40 10 15 14 32 45 38 68 7 22 14 35 16
29 3 -7 12 -13 21 -13 37 0 63 -86 37 -123 -23 -33 -20 -94 5 -102 11 -3 20
-13 20 -21 0 -8 8 -26 17 -41 15 -23 15 -27 2 -37 -19 -13 -31 -66 -15 -60 16
5 46 -60 39 -85 -13 -51 22 -92 54 -60 8 8 17 7 32 -3 18 -11 23 -11 32 2 8
11 9 6 4 -20 -3 -19 -8 -51 -10 -70 l-4 -35 7 35 c5 24 10 31 16 22 5 -8 18
-11 36 -7 27 6 28 6 35 -59 9 -87 0 -122 -41 -163 -31 -31 -34 -39 -30 -81 3
-40 8 -48 34 -61 17 -8 33 -24 35 -35 2 -12 5 -4 6 17 1 31 -3 40 -20 44 -12
4 -18 11 -15 20 3 8 6 26 6 39 0 13 5 24 10 24 6 0 10 -8 10 -18 0 -10 11 -29
25 -42 18 -17 25 -34 25 -62 0 -21 -4 -38 -10 -38 -5 0 -10 -16 -10 -35 0 -21
5 -35 12 -35 7 0 2 -7 -11 -16 -19 -14 -25 -14 -31 -3 -7 10 -11 10 -24 0 -12
-10 -16 -32 -16 -82 0 -72 -4 -80 -26 -52 -11 15 -13 4 -14 -79 0 -88 -2 -97
-20 -103 -26 -8 -27 -55 0 -104 22 -42 46 -281 28 -292 -6 -4 -7 -34 -3 -83 5
-54 4 -76 -4 -76 -6 0 -11 7 -11 16 0 18 -44 64 -61 64 -5 0 -9 6 -9 13 0 6
-6 4 -12 -7 -6 -11 -9 -48 -6 -92 3 -41 1 -74 -4 -74 -4 0 -8 -7 -8 -15 0 -8
-4 -15 -10 -15 -6 0 -10 31 -10 73 0 75 -7 117 -19 117 -4 0 -15 -16 -25 -36
-9 -20 -20 -33 -24 -30 -8 9 -24 203 -23 286 0 36 -5 94 -11 128 -9 53 -13 61
-24 50 -7 -7 -14 -28 -16 -46 -1 -17 -6 -32 -11 -32 -5 0 -7 -19 -6 -43 4 -42
3 -43 -26 -41 -19 2 -38 -5 -53 -19 -18 -17 -25 -19 -31 -8 -6 9 -11 4 -19
-18 -10 -27 -9 -31 6 -31 23 0 39 -76 47 -220 7 -116 1 -148 -21 -129 -8 6
-14 20 -14 30 0 20 -24 26 -35 9 -3 -5 -1 -10 4 -10 6 0 11 -9 11 -20 0 -33
-28 -23 -40 15 -9 28 -8 40 5 69 20 42 17 90 -7 94 -17 3 -18 -21 -18 -397 l0
-401 935 0 935 0 0 39 c0 22 -4 41 -8 43 -5 1 -20 48 -33 103 -17 69 -29 100
-40 100 -16 0 -16 -10 -4 -133 7 -74 6 -82 -9 -76 -9 3 -16 17 -16 30 0 13 -9
47 -20 76 -24 63 -25 88 -5 88 9 0 15 10 15 26 0 14 4 23 9 20 13 -9 34 50 26
76 -4 13 -15 41 -25 63 -10 22 -24 55 -31 73 -6 17 -18 32 -26 32 -13 0 -14
-12 -9 -73 7 -74 -5 -134 -24 -122 -5 3 -10 33 -10 66 0 38 -6 69 -16 84 -15
23 -15 25 0 31 17 7 22 34 6 34 -5 0 -10 -4 -10 -10 0 -5 -4 -10 -10 -10 -5 0
-10 12 -10 26 0 14 -5 34 -10 44 -6 11 -17 66 -25 122 -13 92 -13 104 1 114
12 10 12 13 2 18 -10 5 -10 7 -1 12 7 3 13 12 13 19 0 7 7 16 16 19 15 6 16
19 11 101 -3 56 -12 105 -21 122 -8 15 -21 67 -29 116 -12 73 -12 90 0 105 12
16 14 16 29 -3 l16 -20 -5 20 c-3 11 -8 38 -12 59 -4 22 -13 49 -21 60 -20 28
-18 59 6 89 24 30 26 81 5 121 -8 15 -15 53 -15 82 0 43 -3 54 -16 54 -15 0
-16 -10 -11 -80 5 -72 3 -82 -14 -93 -26 -16 -25 -76 1 -120 18 -31 19 -36 5
-47 -20 -17 -23 -13 -37 48 -7 29 -18 52 -25 52 -7 0 -13 9 -13 19 0 10 -9 29
-20 42 -19 23 -21 23 -34 6 -7 -9 -16 -17 -19 -17 -6 0 -15 37 -22 97 -2 23
-6 48 -7 55 -2 8 7 12 25 11 25 -2 27 1 29 40 1 23 0 63 -1 89 -2 26 2 55 8
65 9 15 11 13 12 -17 1 -19 0 -45 -1 -58 -2 -34 20 -92 35 -92 8 0 19 9 25 21
9 16 8 26 -4 44 -10 16 -14 35 -10 55 7 31 24 52 24 28 0 -9 3 -9 10 2 5 8 10
32 10 53 0 35 -2 37 -30 37 -16 0 -30 3 -30 8 1 19 21 36 46 37 15 0 30 8 35
17 5 10 13 26 17 35 13 25 32 28 32 4 0 -18 6 -21 40 -21 36 0 40 3 40 25 0
23 4 25 40 25 29 0 40 -4 40 -15 0 -11 11 -15 43 -15 36 0 46 4 54 23 10 20
11 19 23 -23 8 -25 14 -64 14 -87 1 -23 7 -48 14 -55 6 -6 12 -21 12 -32 0
-12 12 -52 27 -91 14 -38 28 -89 30 -112 3 -24 9 -43 14 -43 5 0 9 -11 9 -24
0 -20 16 -36 36 -36 9 0 3 48 -15 125 -11 44 -27 125 -36 180 -8 55 -18 111
-20 125 -4 19 1 30 22 44 26 19 27 19 37 2 30 -50 39 -55 93 -47 49 7 55 5 79
-20 26 -27 38 -30 62 -16 18 12 30 0 43 -44 7 -22 20 -44 29 -49 15 -8 16 -5
9 33 -4 23 -5 44 -3 46 2 2 -1 10 -8 18 -24 29 1 22 37 -11 21 -20 38 -45 39
-59 1 -17 6 -23 15 -19 8 3 12 1 8 -5 -11 -17 40 -123 56 -117 8 3 27 -11 44
-30 36 -43 118 -71 133 -46 6 8 8 21 5 28 -3 8 0 12 7 10 7 -3 17 -23 22 -46
6 -24 15 -41 21 -39 6 3 9 -10 6 -35 -2 -26 1 -43 10 -48 18 -12 19 -152 2
-157 -8 -3 -13 -24 -13 -56 0 -40 -3 -48 -12 -39 -7 7 -27 12 -44 12 -37 0
-53 -27 -35 -57 6 -10 11 -15 11 -11 0 4 12 1 26 -7 15 -7 33 -11 40 -8 9 3
14 -2 14 -14 0 -33 21 -83 35 -83 18 0 23 -21 25 -102 0 -37 5 -82 11 -100 5
-18 9 -76 9 -130 0 -108 5 -128 30 -128 15 0 17 9 17 62 0 68 8 157 16 164 8
8 37 -123 37 -166 0 -23 4 -60 10 -83 5 -23 12 -64 15 -92 6 -43 8 -47 18 -30
15 27 17 101 6 210 -6 50 -14 151 -19 225 -9 152 -15 174 -41 167 -22 -6 -29
17 -29 101 0 65 4 73 26 45 12 -16 15 -16 24 -3 6 8 8 29 4 45 -4 17 -7 40 -6
53 0 15 -6 22 -19 22 -22 0 -36 59 -20 87 8 14 11 15 12 3 1 -8 5 5 8 30 6 42
8 45 41 51 l35 5 -29 9 c-21 5 -31 4 -34 -3 -7 -22 -20 -12 -18 13 1 17 6 23
14 20 8 -3 25 -8 38 -11 13 -3 24 -7 25 -8 0 0 3 -23 6 -51 3 -31 15 -62 30
-82 14 -18 23 -39 20 -47 -3 -8 1 -22 8 -33 13 -16 14 -13 15 30 0 34 4 49 16
54 20 8 34 -13 34 -53 0 -32 31 -79 44 -67 12 12 26 -20 26 -59 0 -20 4 -39 8
-42 5 -3 9 -18 10 -33 0 -15 7 -44 15 -63 8 -19 15 -60 16 -90 1 -30 5 -57 10
-60 12 -7 51 -124 51 -153 0 -33 20 -87 32 -87 6 0 8 12 5 28 -3 15 -10 59
-17 97 -6 39 -18 113 -27 165 -18 110 -23 280 -8 280 6 0 1 7 -9 15 -27 20
-19 24 39 16 40 -5 65 -18 119 -59 82 -63 129 -88 177 -95 20 -2 50 -11 65
-20 16 -8 36 -18 44 -21 8 -4 29 -14 45 -24 29 -18 30 -22 37 -113 12 -149 24
-510 17 -520 -7 -12 -29 36 -29 64 0 23 -17 47 -32 47 -4 0 -8 -4 -8 -10 0 -5
7 -10 16 -10 12 0 14 -5 8 -17 -14 -30 -4 -162 16 -207 11 -27 18 -68 18 -116
1 -41 3 -90 7 -110 10 -67 18 -135 22 -203 l5 -67 340 0 339 0 0 127 c-1 71 0
151 1 178 2 63 -10 193 -21 214 -13 25 -23 107 -26 206 -3 83 -5 91 -30 110
-25 21 -26 25 -22 97 3 42 8 81 11 87 4 6 22 10 39 8 29 -2 32 1 35 28 2 21
-6 40 -25 62 l-28 33 -37 -18 c-29 -13 -39 -25 -45 -52 -4 -19 -6 -43 -4 -52
1 -10 -3 -18 -8 -18 -6 0 -11 3 -12 8 -2 26 -12 62 -32 120 -17 48 -28 66 -39
64 -11 -2 -17 10 -22 47 -6 43 -28 82 -41 69 -9 -9 -6 -346 4 -403 14 -76 14
-152 1 -160 -5 -3 -10 -17 -10 -31 0 -37 -13 -29 -33 20 -16 38 -18 67 -15
188 4 167 -7 289 -28 315 -10 12 -17 14 -20 6 -3 -7 -15 -8 -32 -4 -24 7 -27
12 -30 58 -3 52 1 60 51 100 13 10 29 29 36 41 8 16 18 21 31 17 13 -4 20 2
29 26 9 26 8 30 -4 25 -14 -5 -35 20 -35 43 0 5 21 20 48 33 26 12 58 30 71
40 46 34 56 16 16 -29 -13 -15 -25 -22 -25 -15 0 6 5 12 11 12 5 0 7 5 3 11
-4 8 -10 5 -17 -7 -5 -11 -22 -29 -36 -41 -21 -18 -23 -23 -10 -28 24 -9 52 6
113 63 32 28 63 52 71 52 16 0 28 -80 24 -156 -2 -27 -1 -87 0 -134 l3 -85 10
55 c5 30 10 71 12 90 2 19 8 36 14 38 11 3 32 -49 32 -79 0 -11 5 -19 10 -19
6 0 10 4 10 10 0 5 16 25 36 45 22 22 34 42 31 53 -4 14 -6 13 -12 -5 -9 -28
-9 -28 -39 2 -28 28 -50 123 -35 147 5 7 9 25 9 39 0 32 30 63 38 40 3 -8 11
8 18 37 20 78 104 148 104 86 0 -14 7 -62 15 -107 26 -143 56 -330 62 -382 2
-27 10 -68 18 -90 7 -22 16 -55 20 -73 4 -18 13 -36 21 -39 8 -3 14 -13 15
-22 0 -11 2 -12 6 -2 7 18 -23 216 -52 336 -28 114 -51 242 -60 330 -4 33 -11
77 -16 98 -9 32 -7 42 13 70 12 18 33 42 45 53 13 12 23 24 23 27 0 3 20 34
44 69 24 35 50 79 58 98 9 19 37 58 64 87 56 60 131 160 156 207 9 18 23 38
32 45 9 8 16 17 16 21 0 4 22 30 48 56 42 42 77 88 152 198 8 13 52 56 97 97
46 41 83 80 83 87 0 6 7 12 15 12 18 0 35 31 35 62 0 42 38 101 109 168 37 36
85 90 106 120 21 30 61 81 89 113 28 32 50 62 49 67 -1 4 4 10 11 13 9 4 14
-3 14 -18 0 -13 3 -53 7 -89 6 -64 6 -66 -16 -66 -18 0 -20 -3 -11 -12 7 -7
12 -39 12 -74 0 -35 5 -66 10 -69 6 -3 10 -32 10 -63 0 -31 5 -64 10 -72 5 -8
10 -10 11 -5 1 21 18 -32 18 -61 1 -17 4 -34 8 -38 20 -19 32 -114 32 -246 0
-195 0 -197 11 -244 15 -64 23 -396 9 -396 -8 0 -10 -24 -7 -78 4 -74 3 -79
-19 -89 -13 -6 -23 -7 -23 -3 0 5 4 10 10 12 11 4 1 78 -11 78 -4 0 -10 -19
-12 -42 l-4 -43 -1 43 c-1 23 -5 42 -10 42 -4 0 -16 17 -26 37 -53 110 -62
123 -78 123 -10 0 -18 -8 -19 -17 0 -15 -2 -15 -8 2 -8 19 -8 19 -15 -2 -4
-12 -6 -66 -4 -119 2 -71 0 -98 -9 -101 -8 -3 -13 -22 -13 -48 0 -26 -6 -47
-15 -55 -16 -14 -21 -60 -6 -60 6 0 6 -11 0 -29 -8 -22 -15 -28 -30 -24 -13 4
-19 0 -19 -11 0 -9 8 -16 20 -16 15 0 20 -7 20 -28 0 -15 -5 -33 -12 -40 -9
-9 -9 -12 0 -12 7 0 12 -13 12 -29 0 -17 4 -32 9 -35 4 -3 14 -26 21 -51 12
-41 15 -45 44 -45 25 0 34 -6 43 -28 16 -35 49 -92 63 -106 5 -5 10 -20 10
-32 0 -13 5 -26 11 -30 19 -11 29 19 23 68 -4 30 -2 59 6 78 l13 31 31 -30
c37 -36 46 -38 46 -12 0 10 7 24 15 31 8 7 15 24 15 38 0 25 1 25 15 6 8 -10
15 -36 15 -56 0 -21 5 -38 10 -38 6 0 10 -31 10 -73 0 -41 7 -96 15 -123 17
-56 20 -124 5 -124 -5 0 -11 17 -11 38 -1 27 -3 30 -6 12 -6 -33 -21 -50 -44
-50 -11 0 -19 -3 -19 -7 1 -5 5 -39 10 -77 7 -61 6 -71 -11 -89 -34 -37 -19
-226 16 -197 9 8 14 6 19 -6 4 -10 1 -21 -5 -25 -8 -4 -4 -14 12 -30 20 -20
23 -34 25 -101 2 -72 1 -78 -15 -66 -9 7 -20 19 -24 26 -11 17 -47 15 -47 -3
0 -11 -11 -15 -40 -15 -22 0 -40 -5 -40 -10 0 -6 -10 -8 -24 -4 -32 8 -34 -3
-37 -156 -3 -129 11 -200 38 -200 7 0 13 5 13 12 0 16 36 -28 50 -62 l12 -30
282 0 c206 0 285 3 294 12 9 9 12 9 12 0 0 -9 69 -12 280 -12 l280 0 0 194 0
194 -31 7 -31 7 31 32 c28 29 31 38 31 99 l0 67 -40 0 c-23 0 -40 5 -40 11 0
8 -5 7 -15 -1 -22 -18 -28 -7 -29 53 -1 31 -6 56 -14 63 -9 6 -15 39 -17 92
-4 93 -17 122 -45 97 -9 -8 -21 -15 -27 -15 -21 0 -32 167 -12 187 12 12 3 53
-12 53 -18 0 -9 52 10 57 36 9 68 141 45 185 -13 25 -35 130 -28 137 2 2 13
-4 24 -14 20 -18 20 -18 20 30 0 56 -27 163 -47 186 -7 8 -13 21 -13 27 0 7
-11 12 -25 12 -23 0 -25 3 -25 48 0 27 -6 57 -15 68 -8 10 -14 33 -14 49 0 27
1 28 13 13 17 -23 26 -23 26 1 0 10 -10 26 -22 35 -16 12 -19 18 -11 22 15 6
18 84 4 84 -5 0 -11 12 -14 27 -3 16 -10 46 -17 68 -6 22 -13 140 -15 263 -3
184 -7 225 -20 238 -12 13 -14 31 -9 97 5 59 2 99 -9 140 -12 46 -13 69 -4
122 9 50 8 69 -2 88 -10 18 -14 95 -15 290 -2 260 -1 266 19 270 11 3 5 3 -12
1 -40 -3 -59 21 -38 50 12 16 10 23 -18 56 -35 42 -57 39 -57 -9 0 -16 -11
-37 -30 -54 -16 -16 -34 -47 -40 -70 -21 -79 -30 -104 -49 -124 -10 -11 -27
-35 -36 -54 -10 -19 -28 -48 -41 -64 -12 -17 -28 -44 -35 -60 -12 -31 -39
-158 -34 -163 8 -9 57 21 64 40 5 13 19 34 31 48 12 14 38 44 58 68 19 24 38
39 42 35 13 -14 -20 -176 -41 -203 -11 -14 -28 -43 -38 -65 -10 -22 -26 -46
-35 -54 -9 -7 -16 -26 -16 -42 0 -16 -4 -29 -8 -29 -11 0 -42 -66 -42 -90 0
-11 2 -20 5 -20 16 0 86 53 96 72 7 13 22 30 34 40 12 10 25 31 28 48 8 38 33
49 52 24 7 -10 10 -21 6 -24 -4 -3 -9 -27 -10 -55 -1 -27 -6 -54 -12 -59 -5
-6 -9 -18 -9 -28 0 -10 -6 -18 -14 -18 -13 0 -28 -35 -32 -75 -1 -11 -5 -27
-9 -37 -4 -11 0 -18 15 -23 25 -8 36 1 42 30 2 11 17 29 34 40 16 11 43 37 58
59 18 25 31 35 37 29 14 -14 -8 -59 -36 -71 -16 -7 -22 -19 -23 -43 0 -18 -7
-38 -15 -44 -8 -5 -17 -24 -20 -40 -14 -70 -21 -90 -33 -98 -8 -4 -14 -17 -14
-27 0 -11 -4 -20 -9 -20 -12 0 -20 -49 -10 -56 15 -9 49 6 49 22 0 8 10 14 25
14 14 0 25 5 25 10 0 6 7 10 15 10 8 0 15 7 15 16 0 8 6 22 13 29 6 8 18 21
25 30 19 23 42 19 42 -8 0 -12 -9 -40 -20 -62 -11 -22 -20 -47 -20 -57 0 -23
-21 -68 -32 -68 -4 0 -8 -9 -8 -20 0 -11 7 -20 16 -20 12 0 9 -8 -10 -33 -31
-41 -32 -47 -5 -47 12 0 30 11 41 25 11 14 26 25 33 25 16 0 31 -81 20 -107
-5 -10 -7 -22 -6 -27 1 -5 -1 -16 -4 -24 -4 -11 -8 -12 -19 -3 -18 15 -25 -4
-33 -86 -6 -60 -5 -63 16 -63 12 0 24 7 27 15 10 24 24 17 24 -10 0 -14 -8
-35 -19 -46 -10 -11 -28 -50 -40 -86 -12 -37 -25 -71 -29 -77 -13 -20 -29 -96
-20 -96 4 0 8 -8 8 -17 -1 -17 -1 -17 -11 0 -13 22 -24 22 -46 -1 -26 -26 -43
-68 -43 -107 0 -32 -2 -35 -30 -35 -21 0 -30 -5 -30 -16 0 -9 -8 -28 -19 -42
-10 -15 -22 -42 -26 -59 -3 -18 -14 -37 -23 -42 -9 -5 -15 -12 -12 -14 8 -8
34 16 50 47 8 16 23 34 34 40 38 23 77 66 70 77 -4 7 -3 9 3 6 6 -4 18 13 28
38 9 25 20 45 25 45 5 0 11 8 14 18 3 9 16 22 28 27 14 6 24 20 26 38 3 26 33
53 46 40 3 -3 11 8 17 25 11 32 29 43 29 18 0 -22 -23 -80 -37 -94 -7 -7 -13
-26 -13 -42 0 -22 -5 -29 -22 -32 -17 -2 -27 -16 -41 -53 -10 -27 -24 -55 -31
-60 -7 -6 -25 -36 -40 -68 -15 -31 -32 -57 -37 -57 -5 0 -9 -18 -9 -40 0 -22
-5 -40 -10 -40 -11 0 -59 -47 -61 -59 -4 -35 -12 -50 -38 -72 -20 -16 -31 -35
-31 -52 0 -31 -29 -44 -62 -26 -13 7 -25 10 -28 8 -11 -9 -11 59 0 109 10 46
10 56 -4 71 -29 32 -25 126 7 195 15 33 23 62 18 65 -5 3 -11 17 -12 31 -3 15
-12 26 -24 29 -11 2 -23 8 -27 15 -10 14 -1 58 18 94 8 15 14 37 14 48 0 12 7
24 15 28 19 7 55 65 55 89 0 29 -45 21 -75 -15 -22 -26 -28 -29 -40 -17 -15
15 -19 40 -17 111 2 37 9 55 32 81 17 19 30 42 30 51 0 9 5 16 11 16 6 0 9 10
7 22 -3 20 -9 23 -46 23 -31 0 -46 5 -53 18 -15 25 -2 91 32 166 16 35 29 66
29 68 0 2 -11 8 -25 13 -15 6 -25 17 -25 29 0 10 -7 24 -15 31 -22 18 -18 41
15 86 38 53 51 154 26 204 -9 18 -16 39 -16 46 0 7 -5 14 -12 16 -15 5 14 121
48 195 27 57 24 85 -6 58 -19 -17 -102 -26 -116 -12 -10 10 -10 63 -1 100 8
29 33 35 68 17 16 -9 19 -7 19 15 0 14 -5 25 -11 25 -7 0 -9 15 -7 42 6 54 -6
90 -26 82 -9 -3 -18 -14 -21 -25 -7 -21 -27 -27 -23 -7 3 18 -13 62 -24 69 -6
4 -13 28 -16 54 -4 41 -2 50 20 68 29 25 53 110 42 151 -6 24 -33 46 -77 62
-28 10 -33 52 -8 82 12 15 26 38 32 52 21 47 43 85 61 104 10 11 36 50 58 88
23 37 52 80 67 95 56 61 94 113 89 121 -5 9 37 52 50 52 4 0 13 8 20 18 12 15
13 14 14 -14 0 -19 -8 -38 -20 -49 -16 -14 -20 -31 -20 -76 0 -66 -7 -89 -26
-89 -16 0 -19 -55 -4 -94 8 -22 12 -24 39 -16 25 7 31 5 36 -10 12 -39 -75
-338 -105 -360 -14 -10 -60 -101 -60 -118 0 -10 -5 -23 -12 -30 -9 -9 -9 -12
3 -12 20 0 69 64 69 90 0 15 9 25 29 33 16 6 37 24 47 41 10 17 36 48 58 69
35 33 41 44 41 80 0 34 3 41 17 39 9 -1 25 9 34 23 25 38 40 32 36 -15 -4 -36
-2 -40 18 -40 22 0 23 3 17 58 -17 163 -28 337 -20 339 11 4 7 86 -5 110 -6
11 -13 69 -15 129 -2 61 -7 116 -11 123 -5 7 6 30 28 58 20 26 36 54 36 64 0
10 6 22 13 26 7 4 26 34 42 67 16 32 35 60 41 63 7 2 15 16 19 30 3 15 20 45
37 69 20 28 28 49 24 61 -4 12 3 33 17 54 13 19 26 42 30 52 10 27 -12 20 -25
-8 -6 -14 -17 -25 -25 -25 -7 0 -18 -11 -23 -25 -6 -15 -17 -25 -29 -25 -24 0
-36 -16 -19 -23 9 -4 7 -6 -3 -6 -9 -1 -29 -11 -44 -23 l-28 -22 6 26 c4 15 3
30 -3 33 -6 4 -10 3 -8 -2 1 -4 -6 -34 -16 -67 -9 -32 -15 -60 -13 -63 3 -2
29 0 58 5 30 6 55 9 57 8 1 -2 -12 -11 -30 -19 -18 -9 -27 -17 -19 -17 9 0 7
-6 -7 -19 -14 -11 -22 -30 -22 -49 0 -33 -22 -48 -48 -32 -14 8 -13 9 7 10
l25 0 -29 30 c-16 17 -31 26 -34 22 -11 -16 -119 -70 -127 -64 -4 4 -4 2 -1
-4 7 -13 -16 -38 -26 -28 -3 3 -8 -4 -12 -15 -3 -12 -14 -21 -24 -21 -9 0 -22
-5 -29 -12 -21 -21 -24 -1 -13 94 8 66 9 134 1 237 -6 80 -12 147 -15 149 -2
3 0 14 6 26 8 16 4 14 -15 -7 -14 -15 -26 -34 -26 -40 0 -7 -12 -14 -26 -15
-15 -1 -52 -6 -83 -12 -99 -17 -94 -18 -102 18 -10 49 -18 50 -25 3 -4 -27
-10 -38 -15 -30 -5 9 -11 10 -21 2 -21 -17 -57 -24 -154 -31 l-91 -7 -6 140
c-3 77 -10 160 -16 185 -6 25 -22 89 -35 143 -13 53 -20 97 -15 97 5 0 14 -10
19 -22 9 -20 9 -18 5 8 -6 30 -5 32 36 38 57 9 46 15 -18 9 -33 -4 -54 -11
-57 -20 -11 -28 15 -297 29 -306 16 -9 22 -38 30 -139 3 -43 1 -79 -4 -82 -12
-8 -2 -45 20 -74 9 -12 15 -31 12 -42 -5 -18 0 -20 36 -20 22 0 41 4 41 9 0 6
19 12 43 14 l42 4 -47 1 c-34 1 -48 6 -48 16 0 9 7 12 19 9 11 -3 34 2 53 11
19 9 53 18 76 20 23 3 52 7 64 11 21 6 22 5 5 -8 -17 -14 -16 -15 3 -20 13 -3
18 -10 14 -21 -3 -9 -1 -16 5 -16 6 0 11 -9 11 -20 0 -23 10 -26 28 -8 9 9 13
7 17 -5 3 -9 7 -25 10 -34 4 -12 8 -14 17 -5 7 7 20 12 30 12 20 0 24 16 6 23
-8 2 -9 8 -4 13 5 5 11 4 13 -3 3 -7 12 -13 21 -13 13 0 10 -6 -11 -24 -18
-15 -25 -29 -21 -40 4 -9 1 -16 -6 -16 -10 0 -10 -3 0 -15 14 -17 5 -35 -19
-35 -10 0 -25 -7 -32 -17 -13 -15 -7 -16 79 -10 l92 7 0 -63 c0 -91 12 -230
19 -219 3 5 38 12 76 16 45 4 65 4 56 -3 -8 -5 -12 -18 -8 -30 3 -12 -2 -30
-12 -43 -10 -13 -16 -28 -14 -33 2 -6 -17 -33 -42 -60 -35 -37 -48 -46 -54
-36 -6 9 -18 11 -35 7 -23 -6 -26 -3 -26 18 0 14 -5 37 -12 51 -9 20 -19 25
-52 26 -23 1 -47 1 -53 0 -7 -1 -13 7 -13 19 0 11 5 20 10 20 6 0 10 9 10 20
0 20 0 20 -21 -1 -12 -12 -18 -27 -14 -38 3 -11 -3 -28 -14 -42 l-20 -24 -1
28 c0 16 4 26 8 23 4 -2 9 28 10 67 2 40 3 79 4 87 1 8 0 55 0 104 l-2 88 -67
-6 c-38 -4 -114 -9 -170 -12 -71 -4 -106 -11 -114 -21 -23 -27 6 -31 101 -13
52 10 124 21 158 25 l64 6 -6 -123 c-3 -68 -5 -171 -5 -230 0 -79 -4 -114 -16
-138 -9 -17 -14 -34 -11 -37 7 -8 135 16 171 32 46 19 88 28 80 15 -3 -5 -17
-10 -30 -10 -14 0 -29 -9 -35 -21 -7 -11 -26 -27 -43 -35 -29 -14 -30 -14 -5
-9 15 3 30 1 33 -5 4 -6 -5 -10 -19 -10 -14 0 -26 -4 -26 -9 0 -5 -9 -11 -21
-14 -12 -3 -18 -10 -15 -16 8 -13 -50 -41 -86 -41 -17 0 -27 -4 -23 -10 3 -6
1 -10 -4 -10 -6 0 -11 11 -11 25 0 19 5 25 21 25 18 0 19 2 9 15 -16 19 -30
19 -30 -1 0 -13 -14 -15 -92 -12 -75 2 -93 6 -93 18 0 8 6 14 13 12 6 -1 12 5
12 13 0 9 -6 12 -17 8 -10 -4 -14 -2 -9 5 3 6 2 13 -4 17 -5 3 -11 -2 -12 -12
-1 -10 -5 45 -8 122 -3 85 -9 139 -15 139 -5 -1 -48 -5 -94 -9 -74 -6 -83 -5
-78 8 4 11 2 14 -9 10 -7 -3 -14 -9 -14 -14 0 -5 -22 -9 -49 -9 -36 0 -53 -5
-63 -18 -10 -14 -30 -19 -95 -21 l-81 -3 1 29 c2 67 -4 134 -12 129 -5 -3 -12
43 -15 102 -4 59 -11 161 -17 226 -11 131 -8 141 42 130 17 -3 32 1 43 11 8 9
25 18 37 20 30 6 37 15 11 15 -12 0 -23 8 -27 20 -3 11 -11 20 -16 20 -5 0 -9
9 -9 20 0 13 7 20 20 20 17 0 20 7 20 39 0 33 -4 40 -22 43 -22 3 -21 4 7 19
17 9 52 20 79 24 35 5 45 9 35 16 -8 5 -21 6 -29 4 -12 -4 -16 6 -18 48 -4 78
-10 144 -22 226 -7 53 -7 77 1 87 6 7 8 22 4 34 -4 11 -2 20 4 20 6 0 11 -8
11 -17 0 -15 2 -15 13 3 43 75 57 107 57 134 0 54 11 58 185 59 87 1 161 3
163 6 3 3 2 8 -2 13 -11 10 -507 5 -518 -6 -5 -5 -2 -24 7 -45 10 -25 15 -70
15 -145 0 -60 3 -112 8 -116 9 -10 50 -257 45 -272 -4 -10 -147 -30 -260 -37
-20 -1 -33 -7 -33 -15 0 -7 4 -10 10 -7 5 3 10 -3 10 -14 0 -10 5 -21 11 -23
7 -2 11 -49 11 -132 0 -114 2 -129 17 -133 15 -4 20 -25 30 -126 14 -153 14
-157 -4 -157 -11 0 -14 -7 -10 -23 21 -92 25 -122 25 -194 0 -81 22 -163 43
-163 5 0 7 7 3 15 -5 13 5 20 27 16 4 0 7 3 7 8 0 5 12 11 28 15 15 3 90 19
167 36 171 38 274 55 282 46 3 -3 6 -58 6 -122 1 -116 -1 -124 -38 -137 -6 -2
-5 -10 3 -19 9 -11 12 -45 11 -107 -1 -51 1 -94 4 -97 3 -3 14 -1 25 5 12 6
32 11 46 11 14 0 26 4 26 9 0 4 32 13 72 20 40 6 78 17 85 23 8 6 16 8 19 5 9
-9 -22 -37 -40 -37 -9 0 -16 -7 -16 -15 0 -9 9 -15 23 -15 13 0 17 -3 11 -8
-22 -14 -44 -72 -44 -117 0 -40 -4 -47 -26 -44 -4 0 -11 -5 -15 -13 -7 -10 -9
-10 -9 0 0 22 -30 13 -42 -13 -10 -22 -12 -23 -23 -8 -11 14 -16 13 -59 -12
-42 -25 -50 -26 -72 -15 -25 14 -33 32 -12 28 6 -2 14 5 16 15 2 10 -2 17 -12
17 -9 0 -16 6 -16 14 0 32 -135 53 -164 25 -6 -5 -12 -9 -15 -9 -4 0 -6 71 -6
157 0 131 -2 158 -14 158 -12 0 -14 -19 -12 -108 1 -64 -2 -113 -8 -120 -6 -8
-9 -55 -8 -110 1 -57 -2 -99 -8 -101 -6 -3 -4 -9 4 -14 12 -9 12 -12 -1 -26
-9 -8 -18 -12 -22 -9 -3 4 -6 1 -6 -5 0 -7 5 -12 10 -12 6 0 10 -6 10 -13 0
-8 -14 -12 -40 -12 -38 0 -56 18 -27 28 9 3 9 7 0 18 -6 8 -13 25 -16 39 -4
24 -4 24 -6 -3 -2 -41 -21 -23 -22 21 -1 33 -3 30 -14 -23 -14 -64 -15 -61
-19 65 -2 36 -6 73 -11 83 -7 17 -40 22 -70 11 -13 -6 -14 -9 -2 -28 20 -31
16 -201 -5 -246 -20 -42 -20 -156 0 -152 6 1 12 -5 12 -13 0 -8 -5 -15 -11
-15 -5 0 -8 -4 -5 -9 4 -5 2 -19 -2 -31 -8 -22 -9 -22 -21 9 -8 17 -17 31 -20
31 -4 0 -15 -16 -24 -36 -10 -20 -25 -38 -35 -41 -10 -2 -27 -18 -39 -36 -17
-27 -22 -53 -27 -160 -3 -70 -2 -126 2 -124 4 2 55 28 114 56 59 29 109 60
112 68 3 8 10 11 16 8 5 -3 10 1 10 9 0 12 -5 14 -25 6 -14 -5 -35 -16 -47
-24 -13 -8 -34 -17 -47 -21 -18 -6 -22 -4 -15 6 4 8 9 20 10 29 1 8 7 42 14
74 6 33 10 70 7 82 -5 26 6 31 113 55 65 14 116 35 125 49 4 6 16 8 27 4 11
-3 18 -2 15 2 -7 12 59 11 70 0 4 -5 2 -7 -6 -4 -8 2 -30 -13 -50 -35 -31 -34
-36 -37 -42 -20 -7 16 -8 15 -8 -4 -1 -13 -5 -23 -11 -23 -5 0 -14 -18 -20
-40 -6 -22 -15 -40 -21 -40 -5 0 -25 -14 -44 -32 -26 -23 -35 -40 -35 -62 0
-49 -20 -107 -51 -154 -16 -24 -29 -52 -29 -62 0 -10 -5 -22 -11 -26 -8 -4 -9
1 -5 17 3 13 3 18 0 12 -3 -7 -12 -13 -20 -13 -9 0 -27 -13 -41 -30 -13 -16
-33 -30 -43 -30 -23 0 -35 -16 -48 -65 -18 -67 -36 -109 -59 -139 -13 -16 -23
-35 -23 -42 0 -8 -4 -14 -9 -14 -12 0 -34 -67 -26 -80 3 -6 0 -7 -9 -4 -15 6
-48 -19 -60 -46 -4 -9 -5 -6 -2 6 7 41 -10 51 -43 26 -17 -12 -33 -22 -37 -22
-4 0 -16 -8 -26 -17 -11 -10 -38 -23 -61 -29 -23 -6 -51 -14 -62 -18 -15 -6
-16 -5 -5 2 11 8 14 25 12 71 l-4 61 -39 0 c-27 0 -39 -4 -39 -14 0 -10 -14
-16 -43 -18 -39 -3 -42 -5 -45 -36 -6 -58 -22 -23 -23 51 l-1 72 -8 -53 c-11
-73 -20 -77 -20 -10 0 33 5 60 13 66 7 6 40 13 72 15 59 3 58 3 -15 5 -41 1
-85 5 -97 8 -22 6 -23 3 -23 -44 0 -28 -4 -53 -10 -57 -5 -3 -6 -15 -1 -28 5
-12 11 -67 15 -122 5 -58 12 -103 19 -107 18 -11 49 -10 42 2 -4 6 5 10 20 10
14 0 33 4 43 9 9 5 42 22 72 37 30 14 66 35 79 45 13 11 29 19 35 19 6 0 -1
-8 -16 -18 -16 -9 -28 -20 -28 -24 0 -5 -5 -8 -12 -8 -6 0 -19 -6 -27 -14 -35
-31 -131 -76 -170 -80 -29 -2 -51 -12 -71 -31 -17 -16 -31 -27 -32 -24 -21 34
-33 59 -37 83 -8 37 -25 43 -39 14 -10 -21 -11 -22 -12 -3 0 15 -6 10 -25 -20
l-25 -40 0 31 c0 40 -19 96 -31 88 -5 -3 -9 20 -9 51 0 41 -4 57 -15 62 -24 9
-26 1 -14 -58 6 -30 12 -110 14 -179 2 -69 8 -157 14 -196 10 -70 10 -71 -25
-137 -20 -37 -39 -65 -44 -62 -11 7 -42 -24 -35 -36 3 -4 -1 -22 -10 -39 -9
-17 -13 -35 -10 -41 4 -5 1 -17 -7 -26 -13 -16 -20 13 -44 210 -7 55 -24 81
-24 35 1 -39 19 -221 26 -252 4 -17 2 -26 -3 -23 -6 4 -13 39 -17 79 -3 40
-14 120 -22 178 -9 58 -18 120 -20 138 -5 33 -5 33 -52 28 -144 -17 -182 -19
-182 -7 0 6 17 11 42 11 58 0 44 9 -17 10 -73 2 -105 10 -105 25 0 7 -7 26
-15 41 -13 26 -13 29 3 36 13 5 11 7 -10 7 -25 1 -26 0 -16 -33 15 -46 3 -90
-22 -83 -13 3 -22 -3 -30 -24 -15 -35 -30 -38 -30 -5 0 38 -17 40 -26 3 l-8
-32 -3 35 c-3 19 -9 39 -14 44 -5 6 -9 27 -9 48 0 21 -5 38 -10 38 -6 0 -9 3
-9 8 1 4 1 18 0 32 -1 19 -3 22 -11 10 -5 -8 -6 -42 -3 -76 3 -34 2 -79 -2
-100 l-9 -39 -7 50 c-4 28 -8 73 -8 102 -1 28 -5 53 -11 55 -5 2 -7 27 -3 61
5 47 10 60 27 67 17 7 12 9 -21 9 -39 1 -63 19 -28 22 8 1 20 3 25 4 6 1 19 3
30 4 11 0 20 6 20 11 0 6 -9 10 -20 10 -11 0 -20 7 -20 15 0 11 -11 15 -40 15
-38 0 -40 2 -42 33 -1 26 -2 24 -7 -13 -4 -32 -11 -46 -23 -48 -15 -3 -18 4
-18 42 0 34 -4 46 -15 46 -29 0 -14 29 21 40 28 9 38 10 44 1 5 -9 13 -9 33 0
15 7 27 16 27 21 0 4 24 9 53 10 l52 1 -45 6 c-25 3 -40 9 -35 12 11 7 155 13
155 6 0 -2 7 -44 15 -92 9 -48 13 -90 11 -92 -3 -3 -1 -15 4 -28 6 -17 5 -27
-6 -35 -19 -17 -18 -41 4 -47 10 -2 19 -13 19 -25 1 -11 4 -23 7 -26 11 -10
106 -15 106 -4 0 12 -75 27 -90 17 -6 -3 -10 3 -10 16 0 18 3 19 15 9 8 -6 20
-10 27 -7 7 3 4 6 -7 6 -38 2 7 21 50 21 22 0 58 5 80 11 22 6 67 16 100 24
61 13 235 73 235 81 0 5 -120 -4 -157 -12 -15 -3 -24 2 -28 16 -4 11 -10 18
-15 15 -5 -3 -16 11 -25 31 -18 45 -20 104 -2 104 8 0 7 4 -3 10 -11 7 -4 10
28 10 24 0 42 5 42 11 0 9 -222 11 -848 8 l-847 -4 -49 24 c-116 58 -190 170
-207 314 -5 45 -14 235 -19 422 -29 1011 -60 1690 -135 2960 -8 138 -19 347
-25 465 -13 276 -17 305 -36 289 -8 -7 -13 -18 -10 -24 6 -17 -21 -55 -39 -55
-8 0 -17 5 -21 11 -12 20 -56 253 -63 342 -7 82 -14 107 -26 95 -3 -2 -7 -78
-9 -169 -3 -90 -9 -180 -15 -199 -5 -19 -9 -46 -8 -60 1 -14 -2 -25 -8 -24
-14 2 -40 -28 -40 -45 0 -8 -6 -16 -14 -19 -10 -3 -12 1 -8 17 4 15 -3 30 -24
50 -21 22 -29 39 -29 65 0 41 -3 43 -29 17 -12 -12 -17 -28 -14 -44 4 -18 -1
-29 -19 -41 -23 -16 -23 -16 -31 16 -5 18 -12 60 -17 93 -11 74 -20 105 -31
105 -5 0 -8 26 -8 58 0 206 -19 312 -57 312 -19 0 -17 -27 12 -215 19 -125 20
-149 16 -302 -1 -54 -6 -93 -12 -93 -5 0 -10 17 -10 38 0 76 -21 104 -48 62
-7 -11 -19 -20 -26 -20 -8 0 -18 -9 -21 -20 -3 -11 -10 -20 -15 -20 -5 0 -10
-21 -12 -47 -2 -27 -9 40 -16 147 -7 107 -17 238 -22 290 -6 52 -10 121 -10
153 0 31 -4 57 -10 57 -5 0 -10 26 -10 57 0 31 -3 54 -6 50 -4 -3 -8 -75 -10
-159 -2 -84 -4 -157 -4 -163 -1 -5 1 -85 3 -177 2 -93 0 -168 -5 -168 -11 0
-10 -74 2 -86 6 -6 3 -15 -10 -26 -11 -10 -21 -14 -23 -10 -3 4 -8 54 -11 112
-7 113 -24 210 -37 210 -21 0 -25 -41 -28 -282 -1 -45 -5 -78 -11 -78 -5 0
-10 18 -10 40 0 22 -4 40 -9 40 -5 0 -11 46 -15 103 -7 127 -19 224 -29 234
-5 4 -7 -26 -6 -67 0 -41 -1 -104 -5 -140 -3 -36 -6 -72 -6 -80 0 -12 -4 -11
-15 4 -8 10 -12 23 -9 27 3 5 -3 57 -12 116 -9 60 -20 145 -24 191 -7 87 -14
107 -25 73 -9 -29 -33 -26 -45 5 -14 36 -12 54 5 54 18 0 20 37 3 43 -10 3
-10 7 1 20 11 14 11 18 -2 23 -27 10 -35 56 -41 224 -6 172 -24 361 -36 370
-13 10 -32 96 -41 185 -5 50 -13 126 -19 170 -19 155 -41 666 -29 681 6 7 9
21 6 31 -4 14 -5 13 -6 -4 0 -13 -6 -23 -12 -23 -7 0 -9 10 -5 28 12 49 14 96
9 195 l-6 97 -207 0 -207 0 6 -32z m1181 -4182 c-6 -6 -30 -9 -55 -7 -27 1
-45 -2 -45 -8 0 -17 -22 -13 -49 8 -20 15 -29 17 -45 7 -12 -6 -23 -14 -26
-18 -4 -4 -38 -9 -77 -11 l-71 -4 -4 51 c-2 28 0 53 4 54 5 2 15 10 23 18 8 8
40 19 72 25 32 5 81 14 108 19 72 13 144 9 149 -10 2 -8 5 -4 6 10 1 14 6 -9
11 -50 6 -47 5 -78 -1 -84z m53 -63 c-3 -8 0 -13 8 -11 8 2 16 -12 22 -37 4
-22 13 -60 19 -85 6 -25 11 -57 10 -72 -1 -19 4 -28 15 -28 11 0 14 -8 11 -30
-3 -16 -1 -30 3 -30 5 0 6 66 2 148 -6 157 1 193 11 52 4 -47 10 -114 15 -150
9 -70 6 -84 -14 -76 -8 3 -16 0 -19 -7 -2 -7 -5 -4 -5 6 -1 11 -9 17 -23 16
-13 0 -17 -3 -10 -6 17 -7 15 -23 -3 -23 -8 0 -15 9 -15 19 0 11 -4 22 -8 25
-10 6 -20 119 -27 276 -3 66 -2 85 4 61 5 -19 7 -40 4 -48z m-47 -61 c15 -20
22 -74 29 -232 3 -63 10 -153 16 -200 6 -47 13 -114 16 -150 l5 -65 -44 -1
c-23 0 -65 -4 -91 -8 -27 -4 -66 -5 -87 -1 -34 6 -39 10 -45 43 -4 23 -9 31
-15 23 -11 -19 -16 -5 -35 89 -17 87 -31 415 -19 457 3 13 10 20 16 17 5 -3
15 0 23 6 8 7 15 9 15 5 0 -4 6 -3 13 3 6 6 33 12 59 14 26 2 50 6 52 9 3 2
21 5 42 6 25 1 42 -4 50 -15z m-295 -465 c5 -39 13 -73 17 -76 12 -8 32 -69
32 -96 0 -27 -53 -41 -170 -44 l-80 -2 -1 33 -1 33 -8 -38 c-8 -45 -20 -60
-20 -26 0 14 -5 30 -12 37 -13 13 -25 240 -14 268 12 32 21 2 32 -109 l11
-112 2 113 c1 85 4 113 13 110 7 -3 16 -15 20 -29 7 -23 7 -23 4 3 -3 27 16
44 35 32 5 -3 9 0 9 5 0 6 18 11 39 11 l40 0 4 -47 3 -48 3 55 2 55 16 -29 c8
-16 19 -61 24 -99z m646 -193 c1 -81 -1 -122 -7 -109 -5 11 -10 49 -11 85 l-2
65 -7 -50 c-4 -27 -5 -66 -2 -85 3 -20 1 -31 -4 -27 -5 5 -12 32 -16 60 -4 35
-5 25 -2 -33 l5 -85 -25 28 c-34 37 -46 34 -47 -13 -2 -53 -3 -57 -11 -66 -5
-4 -8 4 -8 19 0 26 -29 87 -42 87 -5 0 -8 -17 -8 -37 -1 -31 -3 -35 -11 -20
-11 18 -29 23 -29 8 0 -5 6 -16 13 -23 12 -11 12 -16 0 -26 -7 -7 -13 -11 -13
-10 0 2 -7 41 -15 88 -16 90 -20 226 -7 233 4 3 6 -16 5 -41 -2 -41 -1 -43 6
-17 5 17 9 24 10 17 2 -21 21 -3 21 19 0 27 20 14 21 -14 1 -12 6 -3 12 21 11
49 27 56 27 12 0 -16 5 -30 11 -30 6 0 8 -9 4 -22 -7 -22 -7 -23 8 -3 8 11 18
35 22 53 8 39 32 42 38 5 4 -27 4 -26 6 4 1 30 18 44 46 38 6 -1 11 -54 12
-131z m59 114 l6 -21 15 24 c8 13 12 17 10 9 -7 -24 14 -131 24 -124 5 3 12
-3 16 -13 3 -10 11 -25 18 -33 14 -18 38 -135 34 -170 -1 -14 -2 -41 -2 -60 0
-19 -2 -29 -4 -22 -3 6 -9 12 -14 12 -5 0 -9 -36 -9 -80 0 -47 -4 -80 -10 -80
-5 0 -10 16 -10 36 0 19 -6 42 -14 49 -11 12 -13 7 -9 -33 3 -26 11 -52 19
-58 19 -15 18 -24 -4 -24 -15 0 -20 19 -36 121 -18 122 -41 218 -31 134 13
-109 17 -169 12 -165 -11 10 -46 284 -51 390 -2 69 -1 86 3 50 l8 -55 1 68 c2
66 14 87 28 45z m-974 -168 c5 -41 13 -117 18 -168 8 -71 7 -98 -2 -115 l-13
-22 -3 25 c-2 14 -8 30 -14 35 -7 7 -9 3 -5 -12 3 -13 1 -23 -4 -23 -5 0 -9
11 -9 25 0 14 -4 25 -10 25 -5 0 -10 -19 -10 -42 l-1 -43 -24 45 c-18 34 -24
40 -25 23 0 -18 -7 -22 -37 -25 -33 -3 -39 -7 -44 -33 l-7 -30 -1 28 c0 15 -5
27 -11 27 -5 0 -10 12 -11 28 -1 22 -3 19 -14 -18 -12 -41 -13 -42 -14 -14 -1
16 -5 34 -9 40 -20 21 -33 124 -26 201 l7 78 18 -40 18 -40 0 43 c1 35 4 42
21 43 11 1 26 2 33 3 6 1 15 -3 19 -9 5 -6 8 -3 8 6 0 18 71 39 120 36 24 -2
25 -6 32 -77z m-301 -60 c-2 -52 -8 -98 -13 -101 -5 -4 -8 -22 -7 -42 4 -48
-6 -55 -21 -15 -11 27 -14 30 -18 13 -2 -10 1 -21 7 -23 14 -5 15 -52 0 -52
-6 0 -8 8 -4 19 4 14 0 21 -15 26 -11 3 -20 15 -20 26 0 30 -20 22 -21 -8 0
-27 -1 -27 -9 -5 -13 31 -23 28 -16 -5 l5 -28 -12 25 c-6 14 -20 32 -30 40
-12 10 -21 38 -27 85 -16 118 -20 110 63 124 39 7 79 14 87 16 8 2 24 2 35 2
19 -2 20 -8 16 -97z m942 -27 c2 -38 8 -75 11 -84 5 -12 -6 -18 -59 -28 -54
-11 -76 -11 -125 0 -56 12 -59 14 -43 31 20 22 33 23 33 3 0 -31 27 -15 28 17
0 18 6 34 11 36 6 2 11 12 11 23 0 10 7 19 15 19 8 0 15 -7 15 -15 0 -11 11
-15 39 -15 29 0 41 -5 45 -17 3 -10 4 10 2 44 -3 83 10 71 17 -14z m297 -147
c0 -24 3 -58 6 -75 l7 -31 -47 0 c-33 0 -46 4 -46 14 0 8 10 16 22 18 22 3 22
3 2 22 -19 20 -19 20 -22 -2 -3 -21 -9 -22 -83 -22 -52 0 -79 4 -79 11 0 8
-14 10 -40 6 -55 -7 -54 18 1 27 39 6 41 8 35 34 -4 18 -3 22 2 13 7 -10 14
-11 30 -2 12 6 47 13 78 16 31 2 59 7 62 10 3 3 20 5 39 5 32 0 33 -1 33 -44z
m-582 -57 c2 -19 8 -39 12 -45 10 -11 2 -84 -10 -84 -4 0 -13 19 -21 43 l-13
42 -6 -50 c-5 -40 -8 -46 -15 -30 -5 11 -14 26 -21 32 -7 7 -14 17 -16 23 -6
18 -48 -2 -49 -24 0 -18 -2 -17 -11 7 -12 34 -28 26 -29 -16 0 -26 -2 -29 -9
-12 -6 17 -9 14 -15 -19 -5 -24 -4 -41 3 -45 6 -4 7 -12 3 -20 -10 -16 -25 47
-37 147 -4 42 -3 62 4 62 6 0 9 -10 7 -22 -4 -16 -2 -19 7 -10 7 7 20 12 31
12 10 0 15 5 12 10 -3 6 -3 10 2 11 28 3 52 7 81 13 21 5 38 4 47 -4 12 -10
15 -9 15 5 0 31 25 9 28 -26z m358 -234 c0 -5 3 -17 7 -25 7 -20 29 -183 33
-249 1 -30 7 -64 13 -75 11 -24 31 -119 30 -144 -1 -22 -48 126 -49 153 0 11
-8 29 -16 40 -14 19 -15 17 -11 -25 3 -25 8 -61 11 -80 7 -35 7 -35 -8 5 -9
22 -14 46 -11 53 2 6 0 12 -5 12 -16 0 -21 -37 -11 -81 14 -61 13 -70 -4 -30
-8 18 -26 79 -39 135 -36 147 -36 147 -30 71 9 -113 13 -134 24 -156 7 -11 10
-23 7 -25 -6 -6 -34 64 -46 116 l-10 45 3 -53 c4 -64 -8 -51 -26 28 -11 51
-13 52 -16 22 -2 -19 1 -47 7 -64 6 -17 9 -33 7 -35 -7 -7 -35 90 -42 145 -4
29 -11 55 -16 59 -7 3 -7 -14 -2 -48 4 -30 8 -64 8 -76 1 -12 4 -25 9 -29 4
-4 7 -19 6 -33 l0 -26 -11 25 c-14 36 -58 257 -58 296 0 34 8 40 60 45 45 4
60 -2 61 -23 1 -21 2 -21 6 -3 2 11 6 25 7 30 2 6 28 10 57 10 30 0 54 -4 55
-10z m4264 -321 c0 -15 -31 -65 -57 -92 -7 -7 -28 -13 -48 -14 -25 -1 -42 -9
-55 -25 -11 -14 -24 -22 -29 -19 -5 4 -11 -4 -13 -16 -2 -19 -9 -23 -41 -23
l-38 0 4 72 c3 39 8 76 11 82 11 18 78 31 158 31 42 0 80 5 83 10 10 15 25 12
25 -6z m-1020 -1353 c0 -5 -18 -29 -40 -52 -22 -24 -40 -47 -40 -51 0 -4 -7
-8 -15 -8 -9 0 -15 -9 -15 -21 0 -17 -3 -19 -13 -11 -10 9 -17 6 -27 -8 -8
-11 -22 -20 -31 -20 -10 0 -19 -4 -21 -8 -1 -4 -26 -20 -54 -34 l-52 -27 -6
40 c-4 22 -1 58 5 79 10 33 17 39 48 45 20 4 62 17 95 30 32 13 65 21 74 18
10 -4 13 -2 8 5 -5 8 -2 10 8 6 9 -3 16 -1 16 6 0 6 4 9 9 5 5 -3 12 -1 16 5
8 12 35 13 35 1z m-170 -249 c-7 -30 -16 -50 -23 -48 -7 1 -9 1 -4 -1 12 -7 8
-30 -8 -43 -9 -8 -12 -22 -8 -41 5 -26 -1 -35 -43 -75 -34 -33 -44 -48 -35
-54 9 -5 10 -10 2 -14 -6 -4 -15 -4 -21 -1 -5 3 -10 1 -10 -6 0 -10 -3 -10
-12 -1 -10 10 -10 15 2 22 11 7 8 10 -13 15 -33 9 -57 -12 -58 -52 l-1 -28 -8
30 c-4 17 -8 22 -9 12 -1 -11 -8 -17 -18 -16 -10 1 -35 -6 -57 -15 -21 -9 -41
-14 -45 -10 -3 4 -1 9 5 11 6 2 10 14 8 26 -2 12 -5 49 -7 83 -2 54 -1 60 15
56 23 -6 198 80 242 119 20 17 40 28 46 24 5 -3 13 2 17 12 6 17 45 55 51 49
1 -2 -2 -26 -8 -54z m-636 -58 c10 -79 7 -162 -6 -167 -10 -3 -7 -21 10 -73
12 -38 25 -89 28 -114 4 -25 10 -52 15 -61 12 -24 -1 -59 -22 -59 -11 0 -19
-4 -19 -10 0 -5 -19 -14 -42 -20 -25 -7 -37 -15 -29 -19 8 -5 6 -13 -9 -26
-19 -17 -21 -17 -39 -1 -17 16 -19 16 -25 -1 -11 -28 -21 -2 -40 107 -10 52
-20 106 -23 120 l-6 25 -7 -25 -8 -25 -3 25 c-1 14 -2 31 -2 38 1 6 -3 12 -8
12 -5 0 -9 -33 -9 -74 0 -41 -4 -77 -10 -81 -5 -3 -7 -12 -4 -20 3 -7 1 -22
-4 -32 -9 -16 -11 -15 -17 10 -5 19 -14 27 -29 27 -29 0 -70 45 -63 70 3 11 1
18 -4 14 -5 -3 -14 -2 -21 2 -7 5 -5 11 7 21 17 12 14 13 -26 14 l-44 1 45 10
c25 5 49 14 55 19 5 5 17 9 27 9 10 0 18 4 18 8 0 5 14 9 31 10 18 0 40 11 56
26 14 14 36 26 49 26 36 0 29 23 -18 64 -31 28 -39 39 -30 48 9 9 12 8 12 -5
0 -9 7 -17 15 -17 11 0 15 11 15 40 0 25 5 40 13 41 6 1 -1 5 -18 9 -26 7 -23
8 22 9 28 0 55 6 59 12 3 6 -1 10 -12 9 -11 -1 -28 -1 -39 0 -26 2 71 35 146
49 4 0 9 -20 13 -45z m-3359 -359 c3 -41 4 -79 0 -85 -4 -6 1 -20 10 -30 10
-11 15 -26 12 -35 -8 -20 17 -20 33 0 7 8 20 15 30 15 10 0 23 -7 30 -15 9
-10 9 -15 1 -15 -15 0 -14 -72 2 -94 20 -27 53 -17 48 14 -10 73 -7 85 22 88
29 4 37 -14 15 -36 -16 -16 7 -42 41 -43 l26 -2 -25 -4 c-27 -5 -89 -60 -90
-80 0 -7 7 -13 15 -13 8 0 15 6 16 13 0 6 5 0 10 -15 12 -31 33 -42 59 -28 34
18 43 -12 53 -183 17 -310 13 -439 -13 -397 -6 8 -10 26 -10 40 0 14 -7 36
-16 48 -9 14 -13 33 -10 46 3 13 -1 31 -9 42 -14 18 -15 18 -21 -4 -5 -18 -9
-20 -15 -10 -5 7 -9 23 -9 35 0 17 7 22 31 25 28 3 29 4 15 23 -16 20 -16 20
-34 -3 -28 -36 -56 -26 -63 23 -6 36 -7 35 -6 -15 1 -36 -5 -67 -18 -90 l-19
-35 -7 40 c-11 55 -9 214 1 165 l7 -35 2 43 c1 32 -3 42 -15 42 -12 0 -14 5
-9 18 4 9 10 27 12 40 3 13 13 22 24 22 24 0 24 7 -1 47 -13 22 -15 33 -7 36
7 2 2 2 -10 0 -14 -2 -23 2 -23 9 0 7 -9 19 -20 26 -16 10 -20 23 -20 67 0 30
-4 55 -10 55 -5 0 -10 6 -10 14 0 8 -7 16 -15 20 -8 3 -15 13 -15 22 0 9 -9
31 -20 49 -14 23 -21 57 -25 124 l-6 91 25 0 c22 0 24 -4 31 -75z m6007 -383
c-15 -15 -22 -41 -27 -101 -5 -59 -11 -81 -21 -81 -8 0 -14 -4 -14 -10 0 -18
18 -10 49 21 17 17 31 39 31 49 0 20 29 31 60 23 16 -4 20 -14 20 -44 0 -33 3
-39 20 -39 12 0 24 10 30 23 5 12 9 17 9 10 1 -6 8 -19 17 -28 24 -24 8 -143
-21 -159 -10 -6 -26 -19 -35 -29 -8 -10 -26 -23 -39 -30 -27 -14 -23 -7 -90
-148 -28 -59 -51 -117 -51 -130 -1 -21 -2 -22 -11 -6 -17 28 -35 19 -48 -24
-10 -32 -10 -48 -1 -70 7 -16 16 -29 19 -29 9 0 41 66 41 84 0 7 10 21 23 32
28 26 77 47 77 34 0 -6 -4 -10 -8 -10 -5 0 -9 -14 -9 -31 0 -18 -7 -37 -16
-44 -10 -7 -22 -26 -28 -44 -6 -17 -17 -31 -25 -31 -8 0 -14 -8 -14 -18 0 -10
-9 -25 -20 -35 -11 -9 -20 -29 -20 -45 0 -41 -57 -152 -78 -152 -29 0 -43 37
-42 108 1 37 -3 95 -9 129 -5 34 -6 88 -2 119 7 46 4 63 -11 92 -12 24 -17 48
-13 66 11 60 26 108 32 102 3 -3 12 -1 18 4 31 26 45 -57 20 -120 -3 -9 4 -21
16 -28 19 -12 23 -11 37 9 9 13 24 31 34 41 10 10 18 23 18 28 0 6 5 10 10 10
6 0 10 5 10 10 0 9 14 27 60 75 11 12 20 25 20 30 0 6 10 15 22 20 17 7 23 20
26 50 2 22 8 44 13 50 10 10 12 46 3 69 -14 36 -63 4 -64 -41 0 -13 -4 -23 -8
-23 -10 0 -72 -86 -72 -100 0 -19 -46 -79 -61 -80 -23 0 -28 19 -19 70 8 43 4
70 -9 70 -12 0 -51 -49 -61 -76 -11 -28 -54 -34 -64 -8 -8 22 24 184 36 184
13 0 38 26 38 39 0 6 9 15 20 21 11 6 20 15 20 20 0 4 14 22 30 38 17 17 30
38 30 46 0 9 5 16 10 16 6 0 14 8 17 18 7 19 39 50 69 68 17 10 19 8 22 -17 2
-17 -4 -35 -16 -47z m-5293 -367 c16 -5 20 -12 15 -31 -4 -14 -2 -24 5 -24 6
0 11 -7 11 -15 0 -11 7 -14 23 -10 13 3 32 -2 47 -14 21 -17 25 -29 28 -95 5
-87 -4 -139 -19 -115 -5 7 -9 31 -9 52 0 21 -7 54 -15 74 l-16 37 -19 -29
c-23 -35 -25 -45 -7 -45 9 0 18 -42 31 -147 9 -82 20 -167 23 -190 3 -26 2
-43 -4 -43 -6 0 -14 24 -18 53 -5 29 -10 43 -12 32 -9 -40 -23 -39 -24 1 0 31
-2 35 -9 19 -7 -16 -9 -12 -9 20 -1 22 -8 53 -16 69 -13 25 -30 195 -26 273 0
12 -7 26 -15 31 -23 13 -32 105 -13 125 12 13 15 13 21 -3 4 -10 16 -21 27
-25z m5320 -557 c-7 -13 -18 -27 -25 -31 -8 -4 -14 -19 -14 -31 0 -14 -10 -30
-25 -40 -27 -18 -69 -101 -60 -117 10 -15 -23 -59 -45 -59 -10 0 -22 -9 -25
-20 -3 -11 -10 -20 -14 -20 -13 0 -23 94 -11 98 5 2 10 11 10 21 0 24 28 61
46 61 9 0 21 6 29 13 28 26 50 43 59 42 5 0 13 13 17 29 8 29 46 76 61 76 5 0
3 -10 -3 -22z"/>
<path d="M1250 9510 c0 -72 4 -99 20 -131 12 -22 28 -81 36 -132 9 -51 20 -99
25 -107 16 -28 10 89 -10 188 -11 54 -25 136 -31 185 -9 62 -16 87 -26 87 -11
0 -14 -20 -14 -90z"/>
<path d="M3170 9546 c0 -70 7 -91 26 -75 11 9 14 7 14 -10 0 -13 -6 -21 -16
-21 -18 0 -18 -25 9 -265 10 -92 15 -110 28 -107 14 2 17 -9 18 -68 1 -44 -3
-70 -9 -70 -8 0 -10 -89 -6 -303 2 -167 1 -308 -2 -313 -4 -5 -20 -11 -35 -12
-25 -2 -76 -29 -77 -42 0 -4 194 -5 250 -1 21 1 25 221 5 221 -14 0 -23 78
-30 245 -7 196 -16 335 -25 400 -15 110 -15 160 -2 158 8 -2 12 11 12 37 0 29
-4 40 -15 40 -11 0 -15 12 -15 45 0 35 3 43 15 39 11 -5 15 1 15 24 0 32 15
51 23 30 4 -8 6 -7 6 4 1 9 -5 19 -11 21 -10 4 -10 6 0 6 7 1 12 15 12 36 l0
35 -95 0 -95 0 0 -54z"/>
<path d="M3737 9475 c-4 -72 -3 -135 3 -150 5 -14 15 -95 22 -180 9 -109 16
-155 25 -155 6 0 15 5 19 11 9 15 6 216 -6 329 -5 52 -12 134 -16 183 -5 74
-8 87 -23 87 -16 0 -19 -15 -24 -125z"/>
<path d="M5456 9564 c4 -25 3 -39 -6 -44 -9 -6 -7 -13 9 -29 11 -11 21 -31 22
-43 1 -45 24 -136 46 -185 10 -24 14 -76 14 -200 0 -93 -1 -177 -2 -188 -4
-45 13 -332 21 -363 12 -45 -5 -260 -24 -306 -9 -21 -16 -46 -16 -56 0 -13 -6
-17 -19 -13 -13 3 -21 -2 -25 -15 -8 -23 18 -92 33 -92 15 0 14 -27 -1 -33
-10 -3 -10 -9 0 -26 6 -11 12 -28 12 -36 0 -9 9 -15 24 -15 28 0 36 -16 36
-78 0 -25 4 -59 9 -76 21 -69 31 -147 35 -261 4 -108 26 -250 56 -360 14 -52
23 -257 11 -264 -5 -3 -12 -30 -15 -59 -6 -60 -11 -72 -31 -72 -21 0 -28 -19
-13 -37 7 -9 13 -25 13 -36 0 -14 11 -24 35 -34 19 -7 25 -11 13 -9 -33 6 -28
-3 7 -15 17 -6 30 -15 30 -20 0 -8 -16 -5 -55 11 -43 18 -89 30 -114 30 -51 0
-101 20 -101 40 0 10 -5 22 -10 25 -6 4 -8 15 -5 26 5 13 -1 26 -17 39 -19 17
-21 21 -8 29 10 7 19 6 31 -5 16 -14 41 -19 51 -8 4 3 -11 21 -32 40 -25 23
-47 34 -68 34 -17 0 -32 6 -36 15 -3 8 -13 15 -23 15 -15 0 -15 -2 3 -16 19
-15 19 -16 -1 -8 -11 4 -32 9 -47 11 -23 5 -27 10 -30 46 -3 43 -29 67 -27 25
0 -22 1 -22 9 -3 7 16 9 11 9 -20 0 -29 -3 -35 -8 -20 -7 16 -9 14 -14 -14
-13 -63 -8 -168 8 -181 8 -7 15 -19 15 -26 0 -8 4 -14 8 -14 4 0 18 -38 31
-85 15 -52 29 -85 38 -85 7 0 13 9 13 20 0 13 5 18 15 14 9 -4 22 6 35 29 20
33 22 34 68 30 58 -7 74 -19 41 -33 -22 -10 -22 -10 -2 -6 19 3 24 -2 33 -35
6 -21 22 -51 35 -67 39 -46 95 -215 65 -197 -5 3 -10 1 -10 -4 0 -6 14 -11 31
-11 31 0 32 0 25 41 -6 37 -5 39 9 26 8 -9 15 -28 16 -44 l0 -28 11 25 11 25
7 -25 c7 -21 8 -18 9 18 1 37 4 42 24 42 13 0 35 -14 51 -32 l29 -33 -6 35 -7
35 20 -30 c11 -16 23 -44 26 -62 3 -17 17 -40 30 -52 13 -11 24 -25 24 -30 0
-6 -12 1 -27 16 l-28 25 -3 -27 c-4 -32 16 -61 32 -45 7 7 14 2 23 -18 l12
-27 -5 30 c-3 18 8 2 30 -43 20 -41 36 -81 36 -91 0 -23 9 -31 25 -25 11 5 11
13 0 47 -7 23 -16 50 -20 60 -4 10 -3 17 4 17 6 0 11 -7 11 -15 0 -8 5 -15 11
-15 6 0 8 9 4 20 -7 21 10 28 18 8 3 -7 4 0 4 16 -2 24 2 29 21 31 14 1 29 -6
35 -17 7 -10 17 -18 24 -18 7 0 13 -9 13 -19 0 -11 5 -21 11 -23 6 -2 21 -26
33 -54 11 -27 38 -80 59 -116 39 -71 70 -146 63 -157 -5 -8 -163 -5 -203 3
-19 4 -34 3 -38 -3 -3 -6 -23 -11 -43 -12 -20 -1 -48 -4 -62 -8 -14 -5 6 -7
49 -5 69 3 76 2 98 -22 28 -30 28 -34 6 -34 -12 0 -14 -3 -6 -11 18 -18 35 0
28 31 l-6 27 111 8 c93 6 109 9 99 21 -13 16 -29 134 -18 134 4 0 10 -8 12
-17 4 -17 5 -17 6 0 2 25 29 21 34 -5 4 -22 4 -22 6 2 1 23 4 22 45 -24 25
-26 47 -60 49 -75 4 -23 4 -22 6 7 0 17 -3 32 -9 32 -5 0 -10 7 -10 15 0 21
22 19 41 -3 18 -21 32 -92 18 -92 -5 0 -9 8 -9 18 -1 16 -1 16 -11 0 -5 -10
-22 -18 -37 -19 -15 0 -21 -3 -14 -6 6 -2 12 -9 12 -13 0 -20 50 -62 68 -58
15 4 18 1 15 -21 -4 -20 -2 -23 6 -11 9 12 13 9 23 -17 14 -37 29 -45 21 -10
-6 21 -5 20 16 -5 21 -26 27 -64 13 -83 -4 -6 -69 -11 -146 -13 -76 -2 -148
-8 -160 -12 -20 -8 -20 -9 4 -11 14 -1 43 -4 65 -6 66 -6 228 17 243 35 7 10
12 11 12 4 0 -7 7 -12 15 -12 13 0 15 9 9 58 -6 54 -5 58 15 58 13 0 21 -7 21
-18 0 -13 8 -18 25 -18 23 0 25 -4 25 -40 0 -25 -5 -40 -12 -41 -7 0 1 -6 18
-12 17 -7 50 -32 73 -57 29 -31 41 -39 41 -27 0 10 -12 29 -27 42 -16 13 -23
25 -16 25 6 0 23 -15 37 -32 15 -18 31 -38 36 -45 13 -16 13 -26 -1 -18 -6 4
-17 -2 -25 -13 -17 -25 -60 -39 -139 -46 -84 -8 -186 -24 -193 -30 -3 -3 24
-6 59 -6 36 0 70 -5 76 -11 9 -9 16 -8 28 5 19 18 47 20 164 6 54 -6 91 -16
103 -27 18 -16 22 -16 64 0 43 16 45 15 57 -3 6 -11 20 -20 30 -20 10 0 27
-10 38 -22 l18 -23 1 60 c0 34 -4 65 -9 70 -17 19 -21 62 -7 74 21 18 18 211
-3 219 -24 8 -60 54 -61 77 0 16 -2 17 -10 5 -7 -12 -16 -7 -48 27 -32 34 -40
51 -46 94 -13 104 1 240 30 285 14 23 22 134 10 152 -11 19 -61 14 -81 -8 -10
-11 -23 -20 -30 -20 -19 0 -45 -34 -45 -58 0 -30 25 -28 68 5 l35 26 -7 -24
c-4 -13 -14 -49 -23 -79 -22 -72 -21 -249 1 -302 23 -53 22 -250 0 -272 -23
-24 -49 -19 -86 14 -18 17 -39 30 -46 30 -24 0 -42 28 -42 64 0 20 -4 36 -8
36 -5 0 -15 18 -22 40 -7 22 -19 40 -26 40 -8 0 -29 17 -49 38 -30 33 -35 43
-35 92 -1 30 -6 79 -13 109 l-13 53 -24 -26 c-14 -14 -34 -26 -45 -26 -21 1
-85 53 -85 70 0 5 -5 10 -11 10 -18 0 -95 65 -242 204 -29 26 -64 53 -79 58
-16 6 -28 14 -28 18 0 14 -43 54 -70 67 -39 18 -121 41 -171 48 -48 7 -78 33
-93 81 -3 11 -16 31 -28 43 l-21 23 34 -7 c19 -4 60 -18 91 -32 31 -14 61 -22
66 -19 9 5 8 79 -5 243 -5 63 -3 72 13 76 17 4 17 5 2 6 -29 2 -34 37 -43 311
-3 102 -12 241 -21 310 -26 219 -43 483 -32 503 8 16 14 10 39 -42 17 -34 27
-66 24 -71 -4 -6 -8 -43 -10 -84 -3 -56 -1 -76 10 -80 18 -7 21 5 24 114 3
133 -17 299 -41 324 -17 19 -18 19 -32 -15 l-15 -34 -16 40 c-16 37 -21 75
-45 355 -5 63 -14 158 -19 210 -6 52 -17 185 -26 295 -9 110 -25 277 -36 370
-10 94 -19 197 -19 228 l0 57 -115 0 -116 0 7 -36z m1634 -4038 c61 -127 59
-273 -2 -167 -17 31 -31 42 -56 47 -28 6 -33 10 -28 28 3 11 9 53 12 91 10
121 18 122 74 1z"/>
<path d="M6117 9538 c6 -80 20 -118 43 -118 15 0 20 -11 25 -53 4 -29 3 -75
-2 -102 -13 -71 -5 -145 14 -145 13 0 15 -11 9 -77 -4 -43 -11 -79 -17 -81
-10 -4 -11 -95 -1 -160 7 -44 25 -58 30 -23 4 21 28 35 37 21 3 -5 9 -32 12
-60 6 -49 -8 -87 -28 -74 -11 6 -17 -25 -22 -111 -4 -71 7 -135 23 -135 14 0
40 30 40 46 0 8 5 14 10 14 6 0 10 8 10 18 0 9 7 25 14 35 14 18 15 17 21 -3
9 -29 -15 -121 -37 -141 -34 -31 -50 -91 -56 -201 -5 -105 -4 -108 17 -108 24
0 25 -11 11 -130 -5 -48 -4 -133 5 -245 7 -93 10 -191 6 -217 l-8 -48 33 0
c24 0 34 5 39 20 3 11 11 20 16 20 19 0 22 -33 9 -97 -14 -74 -4 -113 39 -150
23 -20 24 -25 14 -55 -6 -18 -14 -69 -18 -113 -6 -62 -11 -83 -26 -93 -20 -14
-28 -92 -9 -92 6 0 10 18 10 40 0 22 5 40 10 40 6 0 10 -7 10 -15 0 -15 19
-55 31 -65 3 -3 11 -47 17 -98 15 -125 26 -139 57 -66 8 19 18 34 24 34 13 0
31 56 31 96 0 19 -4 34 -10 34 -5 0 -7 6 -4 14 3 8 -3 27 -14 43 -17 25 -18
40 -13 153 4 71 3 138 -3 155 -9 29 -14 87 -35 465 -6 96 -15 202 -20 235 -18
111 -31 269 -36 435 -3 91 -8 172 -10 180 -3 8 -9 76 -15 150 -11 158 -37 443
-46 515 -5 43 -15 239 -17 343 l0 32 -113 0 -112 0 5 -62z"/>
<path d="M7105 9398 c4 -40 10 -116 14 -168 4 -52 12 -108 19 -123 7 -16 12
-72 12 -125 0 -97 12 -141 39 -150 11 -4 12 3 7 29 -4 19 -11 79 -16 134 -9
103 -19 173 -40 285 -7 36 -12 80 -11 99 2 46 -8 91 -21 91 -7 0 -8 -24 -3
-72z"/>
<path d="M1584 8756 c-4 -11 -3 -81 3 -155 8 -117 13 -143 36 -186 15 -27 27
-56 27 -63 0 -7 7 -27 17 -45 15 -29 17 -30 24 -12 4 11 8 36 8 55 1 42 -39
202 -61 245 -8 17 -18 56 -22 89 -4 32 -11 66 -16 75 -8 14 -9 14 -16 -3z"/>
<path d="M3586 8008 c-22 -22 -40 -55 -51 -89 -16 -54 -65 -128 -65 -99 -1 26
-33 60 -49 51 -20 -13 -27 -112 -10 -142 9 -17 12 -60 10 -141 -2 -86 2 -133
14 -174 17 -58 12 -144 -8 -144 -6 0 -35 25 -65 56 -47 48 -53 59 -47 82 24
91 13 192 -21 192 -13 0 -34 -58 -34 -95 0 -17 -2 -17 -10 -5 -18 28 -22 97
-9 134 11 31 11 38 -6 56 -17 19 -18 25 -6 73 28 116 23 187 -14 187 -19 0
-38 -65 -31 -108 19 -116 19 -131 1 -138 -10 -4 -27 -2 -38 5 -16 10 -21 10
-28 -1 -5 -7 -7 -18 -5 -24 3 -7 -28 -31 -67 -54 -48 -29 -72 -39 -75 -30 -3
7 -17 26 -32 43 -45 50 -66 14 -35 -60 15 -35 14 -37 -7 -60 l-22 -24 24 -45
c23 -42 24 -46 8 -58 -16 -12 -15 -14 5 -35 l22 -23 -28 17 c-15 10 -33 27
-39 39 -10 19 -10 20 5 7 14 -11 18 -11 23 4 4 9 1 20 -5 25 -7 4 -12 10 -12
14 3 19 -2 28 -31 55 -18 17 -39 31 -47 31 -8 0 -3 -10 13 -25 15 -14 24 -30
20 -36 -4 -7 -11 -2 -18 11 -6 13 -15 22 -19 21 -5 -1 -22 15 -38 36 -22 27
-28 44 -24 61 4 17 2 22 -6 16 -8 -5 -10 -2 -6 8 3 9 0 26 -7 40 -7 13 -16 36
-19 50 -8 29 -37 47 -37 22 0 -8 13 -35 30 -58 30 -45 31 -59 2 -49 -13 5 -11
0 6 -19 27 -30 28 -38 2 -31 -11 3 -20 0 -20 -6 0 -6 6 -11 14 -11 8 0 17 -7
20 -16 3 -8 10 -13 15 -10 11 7 2 -34 -12 -52 -5 -7 -7 -15 -4 -19 4 -3 9 2
13 11 3 9 10 13 15 10 5 -3 9 3 9 13 0 15 2 16 10 3 21 -33 11 -97 -30 -178
-22 -44 -45 -105 -51 -136 -21 -116 27 -238 112 -284 58 -31 149 -27 226 10
l51 25 4 -50 c4 -59 -6 -66 -62 -43 -50 20 -120 21 -146 2 -17 -14 -18 -16 -3
-31 18 -18 86 -23 164 -11 42 7 53 5 64 -8 11 -13 11 -20 3 -28 -17 -17 -15
-35 3 -42 17 -6 91 20 116 41 31 27 76 15 70 -19 0 -5 4 -8 11 -8 9 0 9 -3 0
-12 -25 -25 -12 -34 48 -35 34 -1 57 3 54 8 -3 5 -9 7 -14 4 -4 -3 -19 -1 -32
5 -19 8 -20 9 -3 8 11 -2 25 1 32 5 6 4 18 0 27 -8 13 -14 12 -18 -11 -43 -17
-18 -27 -23 -30 -14 -3 6 -11 12 -19 12 -11 0 -10 -5 6 -22 21 -23 26 -38 12
-38 -4 0 -13 5 -19 11 -8 8 -19 6 -41 -5 -17 -9 -44 -16 -60 -16 -33 0 -88
-34 -110 -67 -13 -20 -13 -23 3 -29 26 -10 89 13 124 46 44 43 106 66 95 36
-8 -21 14 -56 36 -56 10 0 21 9 25 19 3 11 14 22 23 24 16 4 16 5 0 6 -34 2
-18 20 16 19 29 -1 38 -8 61 -45 16 -23 32 -43 38 -43 6 0 3 8 -5 18 -8 9 -21
33 -28 52 -7 19 -18 41 -23 48 -11 14 -31 17 -22 2 3 -5 3 -10 -2 -10 -18 0
-28 16 -29 45 0 17 -4 37 -7 45 -9 20 3 36 33 44 l25 7 -27 -25 c-22 -20 -24
-25 -12 -30 24 -9 81 70 115 158 l12 31 8 -55 c15 -98 24 -133 35 -137 11 -4
51 31 72 63 10 16 11 13 6 -26 -8 -60 -57 -161 -98 -203 -24 -25 -31 -39 -24
-50 8 -15 5 -15 -24 -3 -18 8 -34 18 -36 24 -1 5 -12 8 -22 5 -11 -3 -17 -9
-15 -14 3 -4 13 -5 22 -2 13 5 15 0 10 -28 -4 -19 -9 -50 -13 -70 -7 -45 9
-59 39 -31 12 11 28 17 35 15 19 -7 14 8 -10 35 -18 20 -19 24 -5 19 9 -4 17
-2 17 4 0 6 6 9 14 6 10 -4 16 5 21 34 4 22 18 53 32 70 l26 30 19 -33 c19
-31 21 -31 34 -13 15 20 20 130 7 138 -5 3 -7 74 -6 159 2 182 1 168 12 168 5
0 11 -59 13 -131 3 -123 4 -132 27 -150 31 -26 61 -24 105 6 20 14 39 25 41
25 12 0 3 -98 -10 -124 -25 -48 -31 -131 -10 -162 l17 -26 20 20 c23 22 25 59
13 180 -4 39 -4 72 1 72 4 0 18 -9 30 -21 59 -55 60 44 1 108 -18 20 -19 24
-5 45 13 19 24 23 76 23 47 0 64 -4 74 -17 15 -21 28 -23 28 -5 0 8 9 22 20
32 24 22 27 3 5 -35 -8 -14 -14 -35 -15 -47 0 -12 -7 -28 -15 -37 -8 -8 -11
-17 -6 -20 14 -9 41 4 41 19 0 8 5 17 11 21 8 4 9 0 4 -15 -5 -17 -2 -21 17
-21 21 -1 20 -2 -7 -15 -16 -7 -24 -14 -17 -14 23 -2 51 19 46 33 -3 8 0 24 6
36 7 13 7 20 2 16 -6 -3 -15 8 -21 24 -12 36 5 42 19 8 9 -20 10 -19 9 12 -1
53 0 57 16 36 13 -17 18 -18 39 -6 37 19 81 68 120 134 58 96 46 128 -19 54
-102 -118 -137 -145 -148 -115 -7 18 11 59 23 52 5 -3 10 3 10 14 0 11 -4 23
-10 26 -5 3 -10 -1 -10 -10 0 -10 -7 -15 -17 -13 -13 2 -17 11 -15 28 5 34 42
98 60 105 24 9 26 -2 5 -32 -11 -15 -23 -37 -26 -48 -7 -20 -7 -20 8 0 9 11
21 20 28 21 31 3 57 18 59 33 0 9 1 31 2 48 l1 33 -17 -22 c-21 -29 -32 -19
-18 17 6 16 16 25 24 22 15 -6 49 29 41 43 -7 12 -58 5 -63 -9 -2 -6 -8 -9
-13 -5 -5 3 -9 1 -9 -5 0 -17 -91 0 -127 23 -41 26 -41 33 -3 41 47 10 40 41
-11 55 -34 9 -50 9 -83 -4 -32 -12 -63 -14 -143 -9 -57 3 -103 10 -103 14 0
20 35 79 46 79 24 0 64 23 64 36 0 8 -11 16 -25 20 -29 7 -32 25 -9 45 25 21
191 18 229 -4 37 -21 105 -22 131 -2 19 15 19 15 0 30 -29 22 -85 29 -123 16
-33 -12 -123 -6 -123 9 0 4 7 13 15 20 8 7 15 21 15 31 0 26 -45 25 -88 -1
-41 -25 -40 -25 -34 6 7 39 -16 74 -49 74 -22 0 -35 -10 -60 -47 -18 -27 -36
-50 -40 -53 -4 -3 -17 -29 -29 -59 -23 -61 -33 -76 -81 -129 -44 -49 -71 -87
-100 -142 l-23 -45 -7 45 c-8 53 5 166 26 215 12 30 19 35 46 35 42 0 102 35
124 72 27 46 0 54 -77 23 -35 -14 -17 14 41 67 60 53 114 81 182 92 65 11 136
73 112 97 -20 20 -73 -1 -129 -52 -30 -27 -58 -49 -63 -49 -5 0 -16 -3 -25 -6
-11 -4 -15 3 -18 33 -2 24 -8 38 -17 38 -25 0 -72 -70 -78 -116 -4 -29 -18
-58 -38 -84 -73 -90 -107 -194 -107 -325 0 -57 -3 -80 -11 -77 -7 2 -11 18 -9
36 4 37 -12 61 -39 61 -13 0 -22 14 -34 52 -24 82 -20 103 25 144 40 36 67
100 56 130 -9 23 -26 16 -62 -22 l-34 -35 0 26 c0 15 14 61 32 103 25 61 45
90 94 139 46 45 65 71 70 98 10 56 -8 65 -50 23z m-343 -537 c15 -39 45 -92
67 -118 42 -53 142 -136 178 -147 63 -20 -19 -35 -110 -20 l-37 6 6 49 c7 58
-5 67 -68 51 -40 -10 -40 -10 -57 26 -19 40 -55 82 -72 82 -5 0 -10 2 -10 5 0
14 60 135 67 135 4 0 21 -31 36 -69z m827 -163 c50 -15 122 -57 115 -69 -4 -5
-16 -9 -28 -9 -13 0 -43 -23 -79 -60 l-57 -60 -50 31 c-28 18 -51 35 -51 39 0
4 11 12 25 18 14 6 25 17 25 25 0 9 12 11 40 9 53 -5 54 18 3 65 l-38 34 30
-6 c17 -4 46 -11 65 -17z m-1225 -148 c22 -11 46 -20 55 -20 8 -1 28 -11 43
-23 l28 -23 -26 -14 c-30 -16 -29 -40 3 -56 l23 -11 -26 -17 c-32 -21 -85 -31
-119 -22 -18 4 -28 16 -35 44 -18 62 -13 162 8 162 4 0 24 -9 46 -20z m1065
-35 c0 -41 18 -81 49 -109 30 -28 29 -101 -3 -140 l-23 -30 -13 40 c-17 49
-44 98 -82 147 -30 37 -30 38 -12 59 28 32 68 67 77 68 4 0 7 -16 7 -35z"/>
<path d="M4615 7958 c-2 -7 -6 -33 -9 -58 -3 -25 -8 -61 -12 -80 -4 -30 -3
-33 8 -19 13 16 38 15 38 -2 0 -17 -33 -47 -47 -42 -9 4 -11 0 -7 -12 7 -17 6
-17 -19 0 l-27 17 0 -29 c0 -16 -6 -37 -14 -48 -12 -18 -11 -20 9 -21 16 -1
21 3 19 15 -3 9 0 23 6 31 8 12 13 13 30 2 12 -7 20 -8 20 -2 0 5 5 10 10 10
6 0 8 -12 5 -27 -5 -25 -5 -25 9 5 9 18 22 40 31 48 10 10 15 33 15 63 -1 69
0 83 11 102 5 10 5 20 0 23 -5 3 -11 -8 -15 -24 -5 -28 -7 -29 -26 -18 -26 17
-25 34 3 42 22 6 22 7 3 21 -24 18 -35 19 -41 3z"/>
<path d="M4490 6671 c-42 -9 -111 -44 -136 -68 -17 -17 -17 -17 -11 0 11 28
-11 20 -61 -25 -53 -48 -66 -66 -68 -89 -1 -10 -11 -31 -23 -48 -17 -23 -21
-39 -16 -61 4 -16 3 -35 -1 -42 -14 -22 -13 -56 1 -62 7 -2 22 -24 33 -48 17
-38 64 -94 103 -123 32 -24 101 -55 122 -55 18 1 16 4 -13 19 -41 22 -114 90
-105 99 3 3 20 -8 38 -25 45 -43 85 -61 164 -75 63 -10 74 -9 138 12 58 19 79
33 127 82 73 75 102 146 95 233 -8 110 -73 207 -169 254 -51 24 -159 35 -218
22z"/>
<path d="M2481 6638 c-119 -11 -180 -46 -230 -128 -24 -41 -27 -34 -7 15 8 19
11 35 6 35 -12 0 -57 -56 -65 -80 -4 -11 -11 -18 -16 -15 -5 4 -9 0 -9 -8 0
-8 -7 -28 -15 -43 -29 -55 -14 -180 27 -223 10 -11 18 -23 18 -26 0 -13 65
-85 77 -85 6 0 13 -3 15 -7 5 -13 90 -50 128 -57 33 -5 32 -4 -17 22 -57 30
-123 82 -123 96 0 5 12 -2 28 -17 73 -70 217 -110 256 -71 15 14 16 14 16 0 0
-23 21 -19 27 5 5 17 11 20 35 15 43 -9 113 35 140 88 27 52 48 130 48 177 0
56 -37 163 -73 210 -35 47 -107 94 -153 100 -16 2 -67 1 -113 -3z"/>
<path d="M3938 6363 c-1 -10 -2 -26 -3 -35 -1 -26 -35 -58 -61 -58 -31 0 -74
-17 -74 -30 0 -6 7 -6 20 2 29 18 36 1 9 -23 -14 -12 -17 -19 -8 -16 18 6 45
-31 32 -43 -4 -4 -23 -11 -42 -15 -29 -6 -33 -5 -27 10 4 11 2 15 -6 13 -7 -3
-13 -11 -13 -19 0 -10 15 -15 53 -17 39 -2 53 0 51 10 -4 32 1 42 13 30 17
-17 29 -15 22 3 -4 8 1 17 10 21 9 3 16 13 16 21 0 13 3 13 15 3 13 -11 19 -9
36 8 11 12 24 22 28 22 5 0 14 14 20 31 15 43 13 49 -5 17 -15 -28 -34 -37
-34 -17 0 8 -4 9 -13 0 -8 -6 -17 -8 -20 -5 -3 3 -15 -2 -26 -12 -19 -19 -19
-19 5 -19 13 0 24 3 24 8 0 4 4 7 10 7 5 0 7 -7 4 -15 -3 -8 -13 -14 -22 -13
-38 3 -51 -2 -46 -17 4 -8 2 -15 -4 -15 -5 0 -12 10 -16 23 -5 16 2 29 25 50
17 16 37 26 45 23 7 -3 16 -1 19 4 4 6 -1 10 -9 10 -15 0 -20 16 -17 53 1 9 0
17 -3 17 -3 0 -7 -8 -8 -17z"/>
<path d="M6584 6283 c-5 -21 -15 -37 -22 -36 -17 4 -27 -23 -41 -105 -22 -123
5 -156 67 -86 29 32 33 44 34 98 2 71 -11 166 -21 166 -4 0 -12 -17 -17 -37z"/>
<path d="M5270 6290 c-45 -5 -45 -5 -46 -45 0 -22 -2 -105 -3 -185 -2 -80 2
-185 8 -235 20 -150 19 -173 -2 -179 -26 -7 -11 -26 20 -26 l25 0 -6 78 c-4
42 -11 102 -16 132 -5 30 -11 87 -14 125 -5 60 -4 64 5 30 5 -22 11 -47 12
-55 1 -8 6 -18 11 -21 5 -4 16 -68 24 -143 9 -75 20 -136 25 -136 6 0 7 25 3
63 -15 147 -18 206 -12 231 9 36 72 76 120 76 34 0 37 2 25 16 -10 13 -10 17
1 24 12 7 12 12 -2 27 -17 20 -32 130 -18 138 5 3 10 0 12 -7 3 -8 14 -3 30
15 22 23 33 27 82 27 31 0 56 5 56 10 0 6 -2 10 -5 10 -3 0 -40 7 -82 16 -81
17 -180 22 -253 14z"/>
<path d="M3731 6158 c-8 -18 -13 -37 -12 -42 1 -5 -5 -24 -14 -43 -9 -18 -14
-42 -11 -53 3 -11 8 -28 11 -38 4 -15 0 -19 -26 -20 -17 0 -41 -8 -54 -16 -20
-13 -23 -22 -20 -55 4 -40 -7 -52 -44 -55 -17 -1 -28 -26 -12 -26 6 0 11 -5
11 -11 0 -8 -4 -8 -15 1 -8 6 -19 9 -26 5 -6 -4 -16 -1 -21 6 -7 11 -11 11
-15 2 -2 -7 -11 -13 -18 -13 -7 0 -16 -7 -19 -16 -4 -10 -13 -13 -26 -9 -12 4
-20 2 -20 -6 0 -7 -10 -9 -30 -6 -16 4 -32 2 -35 -3 -3 -5 -12 -7 -19 -4 -8 3
-16 -2 -19 -13 -3 -12 -5 -13 -6 -3 0 8 -10 21 -21 28 -18 11 -22 10 -30 -10
-5 -13 -9 -17 -9 -10 -1 6 -8 12 -17 12 -9 0 -12 -5 -8 -12 5 -8 2 -9 -12 -4
-10 4 -26 10 -34 13 -13 4 -13 4 0 -6 13 -9 13 -11 -2 -11 -25 0 -60 -41 -54
-63 7 -30 -4 -48 -25 -42 -20 7 -84 -37 -72 -49 4 -3 2 -6 -3 -6 -6 0 -20 -9
-32 -20 -18 -17 -22 -18 -22 -5 0 19 -14 19 -30 0 -7 -8 -21 -15 -30 -15 -10
0 -28 -12 -40 -27 -17 -22 -21 -37 -17 -68 3 -22 10 -41 16 -43 6 -2 -6 -19
-25 -39 -25 -25 -35 -42 -33 -61 2 -15 -4 -40 -12 -55 -14 -25 -17 -27 -28
-13 -12 14 -17 12 -42 -20 -16 -20 -29 -48 -29 -61 0 -33 17 -63 36 -63 8 0
13 -4 10 -9 -4 -5 -1 -11 5 -13 7 -2 7 -12 0 -31 -14 -36 -14 -97 -1 -97 20 0
9 -37 -14 -50 -18 -9 -28 -26 -35 -58 -5 -25 -7 -50 -5 -56 6 -16 68 -56 86
-56 17 0 31 -26 22 -41 -9 -16 26 -81 47 -86 23 -6 24 -19 4 -39 -17 -17 -14
-76 6 -100 6 -8 23 -14 36 -14 22 0 24 -2 12 -16 -11 -13 -9 -15 12 -13 63 6
88 -1 91 -23 2 -16 19 -31 51 -48 42 -22 47 -28 42 -51 -4 -19 1 -33 23 -55
25 -27 37 -31 90 -33 58 -2 60 -1 56 21 l-5 23 11 -23 c5 -13 14 -21 19 -18
14 9 135 -33 144 -49 4 -8 15 -15 24 -15 9 0 24 -6 32 -14 19 -17 81 -31 81
-19 0 5 14 14 31 20 17 7 28 17 24 22 -3 6 1 11 9 11 9 0 16 5 16 12 0 8 3 9
10 2 7 -7 32 -8 73 -2 34 5 95 7 135 3 73 -6 74 -6 67 17 -5 18 -4 20 4 8 9
-12 13 -9 23 18 7 17 16 32 20 32 4 0 8 9 8 20 0 15 7 20 29 20 20 0 42 11 67
35 24 23 46 35 65 35 23 0 29 5 30 23 1 16 2 18 6 5 5 -21 8 -22 36 -7 32 17
32 18 12 33 -12 9 -15 15 -7 20 7 4 12 2 12 -3 0 -6 4 -11 10 -11 11 0 8 79
-4 98 -5 9 2 17 22 24 36 14 56 49 39 68 -10 10 -8 12 6 6 16 -5 18 -2 12 24
-6 29 -5 30 26 30 31 0 32 1 13 15 -18 13 -18 14 -1 15 10 0 15 5 12 10 -3 6
-2 10 4 10 5 0 11 -5 13 -12 7 -21 30 4 25 28 -2 13 1 25 7 27 7 3 4 11 -7 24
-10 11 -15 27 -11 36 8 21 -25 36 -36 16 -5 -7 -12 -10 -16 -6 -4 4 7 20 24
37 36 34 41 66 15 87 -17 14 -17 14 0 9 23 -7 22 6 -3 27 -27 23 -25 37 4 37
27 0 42 15 26 25 -16 10 -12 23 6 21 23 -2 29 21 7 27 -17 4 -17 5 0 6 11 1
17 9 17 25 0 23 -23 41 -40 31 -4 -3 -11 7 -14 21 -6 22 -11 25 -31 20 -18 -5
-25 -2 -25 8 0 8 5 18 10 21 16 10 12 28 -5 21 -9 -3 -15 0 -15 9 0 8 4 15 10
15 5 0 7 7 3 16 -4 11 -8 12 -13 4 -5 -8 -10 -9 -14 -2 -3 6 -1 14 5 18 7 4
-1 12 -21 20 -18 8 -36 11 -41 8 -5 -3 -9 2 -9 10 0 9 6 13 13 10 7 -2 22 4
32 16 10 11 13 20 6 20 -7 0 -9 9 -5 25 4 16 2 25 -6 25 -7 0 -10 8 -7 20 3
11 1 17 -4 14 -5 -3 -12 2 -15 11 -5 12 -9 13 -20 4 -11 -9 -14 -8 -14 6 0 11
-5 15 -16 11 -8 -3 -12 -2 -9 4 3 6 2 10 -4 10 -5 0 -13 -4 -16 -10 -12 -19
-25 -10 -25 16 0 20 -4 25 -16 20 -13 -5 -15 -2 -11 13 5 21 -19 38 -27 18 -2
-7 -5 -5 -5 4 -1 20 -59 32 -78 17 -9 -7 -13 -7 -13 0 0 5 7 12 15 16 16 6 21
36 6 36 -6 0 -9 12 -8 28 2 20 -2 26 -15 24 -11 -2 -18 5 -20 20 -2 17 -9 22
-26 21 -12 -2 -22 -2 -22 0 0 1 7 24 15 51 8 27 15 59 14 70 0 17 -3 16 -14
-9 l-14 -30 -1 35 c0 20 -9 52 -19 73 -22 43 -20 46 10 15 l21 -23 -12 24 c-7
13 -25 28 -41 34 -16 6 -29 15 -29 19 0 13 -98 9 -106 -4 -5 -7 -3 -8 6 -3 9
5 11 4 6 -3 -4 -7 -4 -12 1 -12 4 0 13 -11 20 -25 6 -14 9 -25 6 -25 -11 0
-35 32 -48 63 -15 35 -17 119 -3 111 9 -6 9 -5 11 44 2 41 -5 41 -22 0z m-127
-585 c-3 -14 -10 -35 -15 -45 -6 -11 -9 -21 -7 -22 2 -1 10 -7 20 -14 14 -11
18 -9 31 17 8 16 11 35 6 42 -5 9 -10 5 -14 -14 -4 -15 -12 -27 -17 -27 -12 0
-1 54 13 58 5 2 9 10 9 18 0 8 5 14 10 14 6 0 10 -7 10 -15 0 -9 9 -13 28 -12
24 2 27 -2 28 -30 1 -21 -3 -30 -11 -27 -7 3 -15 -2 -18 -10 -4 -9 -13 -13
-22 -10 -9 4 -17 -1 -21 -11 -4 -9 -13 -14 -21 -11 -8 3 -17 -3 -22 -16 -5
-14 -10 -17 -15 -10 -4 7 -11 12 -17 12 -15 0 -10 -22 9 -37 15 -13 15 -14
-10 -8 -16 3 -28 1 -28 -5 0 -5 7 -10 15 -10 8 0 15 -4 15 -9 0 -13 37 -20 48
-9 6 6 8 0 5 -16 -5 -25 -23 -37 -23 -15 0 6 -7 9 -15 5 -9 -3 -15 0 -15 9 0
8 -3 15 -7 16 -5 0 -16 2 -25 4 -27 5 -21 -24 7 -37 18 -8 24 -17 19 -30 -6
-19 16 -48 36 -48 6 0 8 -4 5 -10 -9 -14 -21 -12 -40 6 -21 21 -33 9 -16 -18
10 -17 10 -19 -1 -16 -7 3 -13 17 -13 31 1 17 -6 29 -17 33 -20 6 -24 20 -7
26 6 2 10 13 7 23 -3 17 -7 14 -21 -14 -9 -19 -17 -40 -17 -48 0 -7 -7 -13
-15 -13 -8 0 -15 -4 -15 -10 0 -5 -5 -10 -12 -10 -6 0 -3 9 8 21 19 21 19 21
-1 17 -11 -2 -29 4 -39 14 -11 10 -26 18 -33 18 -8 0 -11 5 -8 10 3 6 3 16 -1
22 -6 9 -10 5 -15 -12 -6 -22 -7 -22 -8 9 -1 20 -8 39 -18 47 -17 13 -17 13
-1 14 10 0 25 -14 33 -30 9 -17 20 -28 25 -25 6 4 10 -1 10 -9 0 -25 15 -19
29 12 8 15 18 36 24 47 35 66 62 123 65 136 2 8 8 18 13 24 12 12 12 -11 -1
-35 -6 -12 -7 -21 -1 -25 6 -3 13 10 17 30 3 20 12 35 20 35 16 0 19 -16 4
-25 -12 -7 -4 -25 11 -25 5 0 9 8 9 18 0 16 26 62 35 62 2 0 2 -12 -1 -27z
m258 -31 c-8 -6 -10 -19 -6 -42 6 -28 9 -31 19 -17 12 16 55 13 55 -4 0 -5 7
-9 15 -9 8 0 15 -6 15 -13 0 -7 11 -21 25 -31 14 -11 24 -25 21 -33 -3 -8 2
-13 12 -13 21 -1 56 -46 46 -61 -3 -6 -3 -14 2 -18 10 -7 42 -53 62 -90 7 -13
10 -33 7 -45 -5 -16 -4 -18 4 -6 14 21 28 -20 30 -89 l1 -55 -25 34 c-14 19
-25 40 -25 47 0 7 -5 13 -11 13 -6 0 -9 -9 -6 -20 6 -24 -5 -26 -23 -5 -9 10
-9 15 -1 15 6 0 11 5 11 10 0 6 -7 10 -15 10 -8 0 -15 -4 -15 -8 0 -5 -7 -17
-16 -28 -15 -18 -15 -18 -9 4 5 16 2 22 -10 22 -13 0 -14 4 -4 21 8 16 8 23
-1 29 -8 5 -6 17 9 43 12 21 16 39 11 42 -6 4 -10 -1 -10 -9 0 -9 -4 -16 -10
-16 -12 0 -12 6 -4 38 5 17 12 21 28 17 11 -2 15 -2 9 1 -7 3 -13 12 -13 20 0
8 -4 14 -10 14 -5 0 -10 12 -11 28 -1 26 -1 26 -10 -5 -5 -18 -14 -33 -19 -33
-13 0 -13 37 0 45 6 3 10 11 10 17 0 7 -9 2 -20 -10 l-21 -22 -21 20 c-12 11
-28 20 -35 20 -21 0 -51 36 -55 67 l-3 28 -13 -23 c-12 -20 -11 -26 2 -41 23
-25 20 -37 -4 -16 -25 22 -25 44 -2 84 14 26 14 33 4 40 -11 6 -10 11 3 25 9
9 22 16 28 16 9 0 8 -3 -1 -8z"/>
<path d="M4512 4258 c-13 -7 -21 -17 -18 -25 3 -7 2 -13 -2 -13 -5 0 -8 -15
-8 -32 0 -39 -25 -94 -71 -160 -18 -26 -33 -52 -33 -58 0 -5 -4 -10 -10 -10
-13 0 -13 -23 1 -37 8 -8 16 -6 30 8 10 10 19 24 19 29 0 6 5 10 12 10 6 0 3
10 -8 21 l-19 22 29 -7 c27 -7 28 -6 15 10 -12 15 -12 16 8 10 17 -5 24 -1 37
25 9 18 16 42 16 54 0 11 6 27 12 33 10 10 10 15 -1 21 -8 6 -9 10 -2 12 9 3
28 100 19 98 -2 0 -13 -5 -26 -11z"/>
<path d="M4573 4153 c-14 -21 -18 -45 -16 -108 2 -59 -3 -97 -19 -145 -25 -80
-38 -96 -38 -48 0 20 -7 41 -16 48 -41 35 -95 -93 -64 -150 11 -21 10 -26 -11
-43 -51 -42 -146 -76 -241 -87 -119 -14 -132 -17 -200 -51 -72 -36 -109 -68
-164 -143 -24 -32 -60 -66 -80 -77 -20 -10 -43 -28 -51 -39 -11 -16 -22 -20
-39 -16 -20 5 -24 3 -25 -19 -2 -33 -3 -38 -13 -53 -4 -7 -3 -19 4 -27 9 -11
8 -19 -4 -37 -22 -32 -20 -39 12 -35 25 3 27 7 28 51 1 26 3 49 5 50 2 2 21 6
42 9 l38 6 -4 -38 c-2 -21 -11 -49 -20 -62 -41 -57 0 -155 43 -104 8 9 15 64
20 138 5 86 12 134 25 162 l19 40 4 -30 c5 -39 16 -49 40 -36 33 18 55 76 47
130 -6 44 -4 50 20 69 31 25 126 62 158 62 18 0 12 -9 -35 -57 -71 -72 -98
-131 -105 -231 -4 -50 -12 -86 -24 -102 -29 -40 -34 -92 -12 -119 l18 -22 27
20 c14 12 28 21 31 21 6 0 16 -38 22 -91 7 -57 34 -101 60 -97 14 2 21 12 23
32 5 42 -4 67 -39 106 -41 45 -57 85 -64 157 -5 48 -4 54 6 38 33 -57 69 -49
69 15 0 25 -10 52 -30 81 -16 24 -30 50 -30 57 0 22 29 71 67 113 39 43 61 52
41 17 -8 -14 -12 -58 -12 -114 1 -84 4 -98 37 -169 24 -50 37 -92 37 -119 0
-79 70 -145 86 -81 11 44 26 36 101 -53 29 -34 81 -55 103 -42 23 14 -25 76
-78 100 -26 12 -58 27 -71 33 -25 12 -125 117 -118 124 3 2 16 -2 30 -8 32
-15 57 -6 57 20 0 25 -60 85 -103 102 -18 7 -35 18 -39 23 -14 20 -4 186 11
186 3 0 21 -32 39 -71 25 -53 50 -87 99 -133 36 -33 93 -89 127 -123 82 -84
153 -100 126 -29 -9 24 -7 26 15 26 13 0 44 -10 67 -22 49 -26 112 -28 135 -5
36 36 -72 80 -140 58 -38 -13 -101 -3 -165 26 -31 13 -34 17 -17 21 36 8 45
21 33 47 -14 32 -63 47 -135 43 l-58 -3 -32 60 c-17 33 -35 73 -38 88 l-8 29
51 -39 c73 -54 153 -85 242 -91 56 -4 84 -11 110 -28 42 -29 124 -34 134 -8 8
22 8 21 -14 42 -20 19 -20 19 17 30 21 6 60 13 86 15 75 7 115 57 62 77 -30
11 -90 -8 -138 -43 -35 -27 -128 -57 -173 -57 l-28 0 22 16 c28 19 28 51 1 59
-33 11 -83 -3 -129 -36 l-42 -30 -51 25 c-48 23 -124 83 -116 90 2 2 35 -1 73
-6 84 -11 187 3 260 36 28 13 76 26 106 30 59 6 105 33 105 61 0 15 -9 24 -44
42 -6 3 38 46 61 57 30 15 70 75 66 101 -9 59 -96 -4 -118 -84 -8 -30 -28 -55
-77 -100 -37 -33 -69 -58 -71 -56 -2 2 0 17 6 33 13 38 2 55 -31 47 -31 -8
-85 -66 -99 -106 -8 -24 -16 -29 -62 -34 -56 -7 -175 11 -160 24 5 4 35 17 67
29 79 29 135 70 204 147 32 36 73 74 91 85 61 37 83 130 27 116 -23 -6 -25 -4
-25 27 0 18 7 42 15 53 15 19 20 89 9 118 -9 24 -31 19 -51 -11z"/>
<path d="M2960 3726 c0 -8 -7 -12 -17 -10 -10 2 -25 0 -33 -6 -23 -15 1 -45
36 -46 16 0 37 -4 48 -9 11 -5 26 -4 36 3 10 6 30 9 44 8 20 -3 30 2 36 18 6
15 9 16 9 5 1 -10 13 -19 33 -23 36 -7 52 3 46 30 -3 15 -13 19 -48 19 -61 1
-78 -4 -83 -24 -4 -15 -5 -15 -6 1 -1 17 -53 34 -71 23 -5 -3 -10 1 -10 9 0 9
-4 16 -10 16 -5 0 -10 -6 -10 -14z"/>
<path d="M2730 3718 c0 -5 -31 -7 -70 -4 -38 2 -73 0 -76 -5 -3 -5 -11 -6 -17
-2 -15 9 -79 4 -91 -7 -5 -5 -5 -17 -1 -27 7 -17 8 -17 15 2 6 15 9 16 9 4 1
-19 71 -26 71 -6 0 9 2 9 8 1 5 -8 54 -11 150 -11 l143 1 -3 26 c-3 23 -7 25
-50 23 -27 -1 -48 2 -48 6 0 4 -9 7 -20 7 -11 0 -20 -4 -20 -8z"/>
<path d="M3200 3623 c0 -14 -122 -22 -133 -8 -6 7 -10 7 -13 0 -2 -6 -27 -10
-54 -8 -41 1 -53 -2 -63 -18 -12 -20 -37 -26 -37 -9 0 6 7 10 15 10 8 0 15 5
15 10 0 17 -40 11 -47 -6 -8 -21 25 -48 42 -34 6 5 16 5 23 1 20 -12 71 0 75
18 4 14 5 14 6 -1 1 -20 41 -25 41 -5 0 9 2 9 9 -1 5 -9 25 -12 62 -10 50 3
52 4 29 15 l-25 12 28 0 c15 1 27 -4 27 -11 0 -8 18 -14 49 -16 41 -2 50 0 54
15 4 14 5 14 6 2 1 -13 14 -16 66 -16 36 -1 65 3 65 8 0 5 -4 9 -10 9 -5 0
-10 6 -10 14 0 11 -21 14 -101 14 -75 0 -104 3 -110 13 -5 9 -9 10 -9 2z"/>
<path d="M2705 3611 c-16 -3 -87 -6 -158 -5 -70 1 -130 -2 -133 -7 -2 -4 -11
-6 -19 -3 -19 8 -32 -23 -16 -39 8 -8 11 -6 11 8 0 17 1 17 20 0 10 -9 26 -15
34 -12 9 4 18 2 21 -3 3 -5 17 -5 33 0 15 5 34 9 42 8 40 -3 60 3 60 19 0 15
2 15 14 -3 13 -18 24 -20 95 -19 45 1 84 5 87 8 3 3 12 3 19 1 7 -3 15 3 18
13 4 16 5 16 6 1 0 -10 6 -18 12 -18 6 0 8 7 5 16 -3 9 -6 20 -6 26 0 6 -12 8
-29 5 -19 -4 -31 -2 -34 6 -3 9 -7 9 -19 0 -8 -7 -19 -9 -24 -4 -5 4 -22 5
-39 2z"/>
<path d="M2420 3033 c-37 -15 -46 -38 -42 -108 2 -30 4 -31 52 -33 42 -2 55 2
75 23 32 31 32 69 0 100 -23 24 -53 30 -85 18z"/>
<path d="M5576 2527 c-10 -7 -16 -20 -15 -28 4 -17 -18 -59 -31 -59 -6 0 -10
9 -10 20 0 11 -4 20 -10 20 -5 0 -10 9 -10 21 0 11 -4 18 -8 15 -5 -3 -7 -20
-5 -38 3 -18 7 -62 10 -98 2 -36 8 -69 12 -73 5 -4 20 -2 35 4 23 11 28 10 41
-7 13 -17 14 -17 15 -1 0 9 5 17 10 17 6 0 10 18 10 40 0 23 -5 40 -11 40 -8
0 -10 17 -7 53 3 28 3 60 -1 70 -6 15 -9 16 -25 4z"/>
<path d="M45 2200 c-13 -15 -18 -37 -19 -82 -1 -39 -5 -63 -13 -66 -9 -2 -13
-33 -13 -105 1 -92 2 -100 15 -83 10 14 15 45 15 98 0 74 1 78 24 84 33 8 50
81 33 136 -14 44 -17 45 -42 18z"/>
<path d="M5593 2080 c1 -60 5 -80 16 -80 9 0 11 -6 6 -17 -9 -22 -9 -101 1
-170 5 -42 11 -53 25 -53 13 0 21 12 29 40 7 27 16 40 28 40 9 1 27 9 40 20
30 25 22 51 -23 76 -19 10 -35 24 -35 30 0 6 -7 17 -16 25 -10 8 -15 27 -13
53 2 50 -13 91 -40 106 -20 10 -20 8 -18 -70z"/>
<path d="M2169 1943 c-7 -32 -14 -50 -17 -40 -2 9 -7 17 -12 17 -4 0 -10 9
-13 20 -3 11 -9 20 -14 20 -4 0 -14 -9 -21 -20 -7 -11 -8 -20 -3 -20 4 0 14
-27 21 -61 9 -43 20 -65 35 -75 13 -8 25 -24 28 -35 4 -13 10 -18 17 -14 15 9
8 74 -16 147 -5 17 -3 18 15 9 27 -15 37 5 33 63 -3 37 -8 46 -22 46 -14 0
-21 -13 -31 -57z"/>
<path d="M13 1793 c-9 -3 -13 -35 -13 -110 l0 -105 40 4 c53 5 53 -15 0 -72
-36 -39 -40 -48 -40 -96 0 -33 5 -54 13 -57 9 -3 9 -7 1 -18 -6 -8 -11 -42
-11 -76 l0 -63 34 0 c20 0 33 5 33 13 0 6 6 4 12 -7 6 -11 8 -39 5 -69 -5 -40
-3 -53 11 -63 26 -20 32 -17 32 16 0 17 5 30 11 30 8 0 9 23 4 78 -4 42 -8 78
-10 80 -3 3 -30 9 -47 11 -5 1 -8 8 -8 16 0 9 -7 27 -16 40 -17 26 -10 50 12
41 8 -3 15 0 15 7 1 7 2 26 3 42 2 17 6 59 10 95 6 49 5 74 -6 100 -9 20 -18
66 -22 103 -7 60 -10 67 -29 66 -12 0 -28 -3 -34 -6z"/>
<path d="M2044 1638 c21 -71 65 -311 66 -358 0 -9 16 -40 35 -70 29 -44 35
-63 34 -101 -3 -59 5 -73 32 -56 24 15 38 -2 39 -48 0 -16 7 -59 15 -95 8 -36
14 -88 15 -117 0 -62 18 -153 30 -153 5 0 10 -8 12 -17 3 -13 10 -6 26 24 23
45 28 73 12 73 -15 0 -27 66 -35 178 l-6 103 -39 38 c-22 21 -40 48 -40 60 0
12 -6 21 -15 21 -8 0 -17 12 -20 28 -3 15 -10 43 -15 62 -6 19 -21 82 -35 140
-14 58 -35 124 -46 147 -11 23 -22 59 -25 80 -6 45 -23 83 -37 83 -5 0 -6 -10
-3 -22z"/>
<path d="M1886 1165 c-6 -17 18 -220 39 -330 8 -38 17 -86 20 -106 6 -42 30
-68 46 -52 8 8 6 33 -5 85 -38 176 -50 238 -60 322 -11 85 -26 116 -40 81z"/>
<path d="M1788 905 c-2 -11 2 -42 9 -70 7 -27 13 -64 13 -82 0 -17 5 -33 10
-35 6 -2 13 -21 16 -43 6 -44 31 -111 50 -135 15 -20 28 -140 15 -140 -5 0
-13 9 -16 20 -3 11 -11 20 -16 20 -5 0 -9 7 -9 15 0 9 -8 28 -17 42 -10 15
-23 42 -28 61 -6 20 -16 37 -24 40 -11 4 -13 -7 -7 -59 4 -35 12 -71 17 -80 5
-10 9 -26 9 -37 0 -10 11 -32 25 -48 14 -16 25 -36 25 -44 0 -9 7 -26 16 -38
19 -27 36 -179 28 -245 l-7 -47 42 0 c39 0 41 2 36 25 -3 14 -7 36 -10 49 -3
13 -1 34 3 47 8 19 10 17 21 -24 8 -25 11 -58 7 -72 -6 -22 -3 -25 19 -25 24
0 25 0 23 88 -1 104 5 123 33 88 10 -13 19 -31 19 -39 0 -9 5 -19 10 -22 6 -3
10 -31 10 -61 l0 -54 50 0 c28 0 50 3 50 8 0 4 -6 27 -14 52 -33 105 -33 103
-9 145 27 48 29 101 4 134 l-18 24 -24 -21 c-12 -12 -26 -22 -30 -22 -21 0
-26 88 -5 96 8 3 24 0 36 -6 12 -6 25 -8 28 -4 4 4 1 9 -5 11 -7 3 -13 11 -13
19 0 8 -10 14 -26 14 -14 0 -39 8 -55 17 -30 18 -38 15 -51 -19 -2 -3 -15 -10
-30 -13 -23 -6 -28 -3 -34 19 -3 14 -9 26 -13 26 -4 0 -13 21 -21 48 -7 26
-22 61 -31 77 -10 17 -21 47 -24 68 -4 20 -11 40 -16 43 -5 3 -9 14 -9 26 0
21 -23 100 -45 153 -11 26 -13 27 -17 10z"/>
<path d="M3186 771 c-24 -27 -45 -88 -46 -134 0 -48 28 -110 46 -103 9 3 14
-1 14 -12 1 -16 1 -16 11 0 18 32 27 109 19 179 -9 82 -19 98 -44 70z"/>
<path d="M2395 385 c8 -134 14 -183 25 -190 5 -3 11 -31 15 -63 14 -131 14
-132 44 -132 27 0 28 1 20 43 -17 97 -22 117 -29 117 -13 0 -29 74 -40 185 -7
73 -16 115 -26 125 -14 13 -15 4 -9 -85z"/>
<path d="M2901 446 l-45 -34 3 -58 c1 -33 7 -63 12 -68 5 -6 9 -18 9 -28 0
-11 7 -18 19 -18 12 0 23 -11 30 -30 6 -17 16 -45 23 -63 24 -65 75 -67 65 -3
-3 17 2 62 10 100 12 53 12 70 3 76 -9 5 -9 9 -1 14 6 4 11 2 11 -3 0 -24 17
-8 39 36 l23 47 -36 33 c-49 46 -103 46 -165 -1z"/>
<path d="M5532 277 c-9 -27 -11 -149 -2 -182 9 -36 0 -45 -50 -45 -38 0 -52
-4 -60 -19 -5 -11 -10 -22 -10 -25 0 -3 52 -6 115 -6 l115 0 0 40 c0 22 -3 40
-8 40 -8 0 -32 93 -32 127 0 11 -6 23 -14 26 -8 3 -17 19 -21 36 -9 43 -19 45
-33 8z"/>
<path d="M5760 258 c0 -28 -5 -38 -20 -43 -11 -3 -25 -16 -31 -27 -13 -23 -6
-104 12 -156 10 -29 15 -32 53 -32 39 0 42 2 53 40 8 24 10 48 4 62 -4 13 -11
47 -15 76 -4 30 -11 59 -17 65 -5 7 -16 21 -24 32 -14 19 -14 18 -15 -17z"/>
</g>
</svg>
