<?xml version="1.0" standalone="no"?>
<!DOCTYPE svg PUBLIC "-//W3C//DTD SVG 20010904//EN"
 "http://www.w3.org/TR/2001/REC-SVG-20010904/DTD/svg10.dtd">
<svg version="1.0" xmlns="http://www.w3.org/2000/svg"
 width="500.000000pt" height="500.000000pt" viewBox="0 0 500.000000 500.000000"
 preserveAspectRatio="xMidYMid meet">
<metadata>
Created by potrace 1.16, written by Peter Selinger 2001-2019
</metadata>
<g transform="translate(0.000000,500.000000) scale(0.100000,-0.100000)"
fill="#000000" stroke="none">
<path d="M3343 3933 c-58 -68 -93 -118 -158 -228 -56 -94 -205 -388 -205 -404
0 -6 -9 -26 -20 -46 -11 -19 -45 -110 -76 -202 -31 -93 -61 -176 -66 -186 -5
-10 -16 -44 -24 -75 -8 -31 -30 -106 -49 -167 -19 -60 -42 -146 -51 -189 -14
-64 -23 -87 -51 -115 -18 -20 -70 -76 -115 -126 -110 -120 -317 -325 -329
-325 -18 0 -9 58 30 181 21 68 48 160 59 204 12 44 28 105 37 135 32 111 -17
231 -102 251 -34 8 -40 6 -60 -18 -19 -23 -45 -88 -81 -203 -6 -19 -25 -105
-43 -190 -26 -132 -30 -171 -27 -260 5 -116 16 -146 70 -196 64 -60 106 -66
188 -24 53 27 197 182 294 318 33 45 63 82 68 82 5 0 6 -5 3 -10 -12 -20 -22
-271 -14 -364 8 -94 35 -181 62 -198 39 -25 55 -2 77 112 31 171 145 441 216
513 20 20 40 37 45 37 12 0 11 -71 -2 -281 -20 -293 12 -435 110 -488 120 -66
243 9 433 263 49 65 94 129 99 142 10 29 9 29 53 3 76 -44 189 -23 297 57 28
20 51 35 52 33 1 -2 15 -30 31 -63 37 -73 86 -108 160 -114 179 -15 460 236
584 521 31 72 32 81 18 95 -20 20 -19 21 -179 -158 -209 -234 -277 -290 -354
-290 -33 0 -45 5 -54 22 -21 39 -4 117 50 227 28 57 51 114 51 126 0 31 -40
87 -73 103 -18 9 -42 11 -67 7 -34 -6 -46 -15 -82 -67 -139 -194 -302 -373
-335 -366 -26 5 -28 55 -4 117 33 89 121 238 185 314 33 39 65 78 71 85 44 58
108 102 148 102 44 0 64 -16 82 -65 21 -54 37 -57 59 -11 39 83 8 164 -78 205
-111 51 -264 3 -400 -127 -118 -113 -259 -432 -260 -592 -1 -88 -14 -114 -135
-275 -159 -211 -211 -233 -241 -101 -7 30 -10 142 -8 295 3 214 1 254 -15 305
-10 32 -29 69 -41 81 -23 23 -23 24 -6 52 26 42 235 234 316 290 16 12 42 25
57 28 45 12 51 29 21 64 -21 26 -33 31 -69 31 -26 0 -51 -7 -66 -18 -13 -11
-46 -31 -74 -47 -57 -31 -124 -82 -175 -134 -19 -20 -71 -71 -115 -113 -44
-42 -93 -94 -110 -116 -16 -22 -33 -38 -37 -36 -7 5 12 77 40 149 16 43 104
190 122 205 37 31 315 628 360 775 7 22 16 45 21 50 4 6 17 46 29 90 12 44 35
113 51 153 34 87 35 92 9 141 -24 47 -75 81 -123 81 -30 0 -42 -8 -84 -57z
m112 -275 c-14 -35 -44 -112 -66 -173 -69 -188 -136 -342 -252 -577 -106 -215
-152 -292 -106 -175 12 28 34 90 49 137 16 47 40 114 55 150 74 178 119 279
163 363 26 51 76 153 111 227 64 135 95 167 46 48z"/>
<path d="M1565 3858 c-20 -17 -66 -41 -103 -54 -37 -13 -86 -30 -109 -38 -53
-19 -169 -81 -210 -112 -17 -13 -36 -24 -41 -24 -6 0 -12 -4 -14 -9 -1 -5 -48
-44 -103 -86 -269 -210 -400 -350 -547 -582 -122 -194 -160 -306 -159 -475 1
-197 37 -319 132 -446 73 -96 171 -151 309 -173 130 -20 281 18 460 115 52 28
99 53 104 55 6 2 7 -41 3 -109 -6 -97 -4 -127 15 -206 17 -71 27 -95 43 -102
29 -13 60 2 72 35 5 15 16 44 23 63 6 19 36 105 66 190 29 85 66 182 82 215
91 190 114 234 144 277 18 26 50 72 71 102 21 30 53 68 70 84 43 38 95 105
107 137 13 34 13 121 0 144 -5 10 -16 21 -24 24 -14 6 -134 -15 -276 -48 -179
-42 -277 -57 -405 -62 -184 -8 -191 -10 -188 -57 4 -55 30 -101 75 -133 51
-35 106 -36 271 -3 64 13 120 20 124 16 4 -4 -8 -19 -27 -34 -19 -14 -53 -45
-75 -68 -49 -50 -134 -120 -198 -162 -52 -34 -50 -33 -121 -92 -56 -48 -211
-127 -309 -160 -83 -27 -193 -26 -224 3 -59 53 -88 174 -79 332 10 174 87 378
182 485 27 30 97 117 140 174 55 74 287 274 422 364 l63 43 -8 -28 c-5 -16 -7
-65 -6 -110 4 -132 56 -237 107 -217 9 4 48 70 85 148 38 77 107 221 155 319
47 98 86 191 86 207 0 20 -10 37 -35 59 -49 43 -101 43 -150 -1z"/>
<path d="M4036 1339 c-43 -37 -54 -81 -32 -132 16 -39 67 -77 104 -77 36 0 97
36 110 65 7 14 12 44 12 66 0 33 -7 48 -34 75 -29 29 -41 34 -80 34 -36 0 -52
-6 -80 -31z m145 -18 c54 -55 29 -146 -46 -165 -40 -10 -94 18 -110 57 -42
100 80 184 156 108z"/>
</g>
</svg>
